<?xml version="1.0" encoding="UTF-8"?>
<svg id="OBJECTS" xmlns="http://www.w3.org/2000/svg" viewBox="0 0 279.47 436.33">
  <path d="m34.12,171.09c-.25.22-.57.39-.75.65-2.09,3.03-4.17,6.07-6.24,9.12-2.22,3.28-4.46,6.54-6.62,9.86-1.14,1.75-2.13,3.61-3.19,5.42-1.36,2.32-2.73,4.63-4.08,6.95-.64,1.11-1.26,2.24-1.85,3.38-1.35,2.58-2.69,5.18-4.04,7.76-.1.2-.27.36-.5.66-.2-.55-.38-.96-.5-1.39-1.85-6.17-3.61-12.35-4.79-18.69-.89-4.79-1.41-9.61-1.12-14.5.28-4.82,1.39-9.47,2.95-14.04,2.73-8.02,7.31-14.88,12.9-21.13,6.65-7.43,14.38-13.56,22.66-19.04,4.83-3.2,9.6-6.47,14.11-10.11,3.09-2.5,6.09-5.13,8.67-8.18.86-1.01,1.62-2.1,2.08-3.45-.15.11-.32.19-.44.33-3.9,4.39-8.64,7.68-13.73,10.5-2.04,1.13-4.18,2.08-6.28,3.11-1.21.59-2.41,1.2-3.63,1.74-.57.26-1.19.39-1.82.59-.58-.92-.79-1.83-.96-2.74-.44-2.37-1.33-4.59-2.19-6.82-.8-2.08-1.7-4.1-2.86-5.99-1.01-1.64-2.07-3.24-3.13-4.85-1.83-2.78-3.64-5.57-5.52-8.32-1.82-2.66-2.87-5.62-3.45-8.74-.66-3.56-.38-7.1.73-10.54.84-2.61,1.78-5.19,2.73-7.77.38-1.02.53-2.02.25-3.08-.72-2.71-1.41-5.43-2.13-8.14-.21-.78-.46-1.54-.73-2.41-2.21.73-4.23,1.61-6.13,2.71-2.03,1.17-3.92,2.55-5.63,4.15-1.02.95-1.94,2.01-2.89,3.04-.6.66-1.24,1.23-2.15,1.42-.85.18-1.33-.08-1.57-.93-.35-1.21.06-2.37.56-3.37.62-1.23,1.42-2.47,2.42-3.4,2.17-2.01,4.48-3.89,6.83-5.7,1.05-.81,2.32-1.34,3.49-1.98,1.03-.56,2.07-1.1,3.15-1.68.08-.94-.34-1.8-.54-2.69-.15-.68-.36-1.36-.54-2.03-.33-1.26-.27-1.52.72-2.24,1.49-1.07,3.07-1.87,5-1.87,1.42,0,2.52.56,3.31,1.64.69.93,1.22,1.99,1.79,3,.36.64.58.77,1.25.57,3.42-.99,6.84-1.94,10.25-2.97,2.76-.83,5.33-2.08,7.62-3.85.87-.68,1.69-1.43,2.45-2.23,2.37-2.49,5.13-4.23,8.58-4.74.17-.02.33-.11.6-.2,0-.38.02-.78,0-1.18-.15-2.98-.2-5.97-.51-8.93-.2-1.93.68-3.24,1.87-4.48,1.34-1.4,2.55-2.88,3.52-4.56.98-1.69.93-3.26-.31-4.68-.32-.37-.85-.59-1.33-.78-.65-.26-1.32-.51-2.01-.59-2.13-.27-3.63,1.22-3.48,3.36.03.4.13.81.09,1.21-.08.83-.59,1.4-1.25,1.49-.78.1-1.43-.19-1.75-.89-.23-.51-.39-1.12-.35-1.67.19-2.65,1.75-4.36,4.03-5.48,3.8-1.86,7.89.23,9.56,3.12.81,1.39.74,2.94.28,4.43-.78,2.49-2.01,4.75-3.96,6.52-1.3,1.18-1.89,2.39-1.63,4.27.35,2.52.21,5.11.29,7.67,0,.28.06.57.09.87,1.39.2,2.71.36,4.02.58.45.08.92.21,1.31.45,1.73,1.07,3.58,1.94,5.17,3.23,1.27,1.03,2.44,2.22,3.81,3.07,1.78,1.1,3.31,2.61,5.36,3.27.22.07.43.2.63.31,2.82,1.58,5.85,2.62,8.89,3.66.93.32,1.84.66,2.9,1.03.51-1.22,1.05-2.32,1.43-3.46.41-1.21,1.12-1.86,2.43-1.86,1.23,0,2.46-.11,3.68-.08.69.02,1.41.14,2.05.37,1.04.38,1.43,1.1,1.25,2.2-.2,1.21-.47,2.41-.7,3.61-.11.56-.21,1.13-.31,1.7,1.41.52,2.7,1.01,4,1.47,2.49.89,4.67,2.29,6.84,3.81,2.23,1.56,3.67,3.68,5.18,5.81.88,1.24.78,2.55.49,3.87-.26,1.21-1.4,1.52-2.23.6-1.06-1.18-2.09-2.38-3.37-3.31-1.98-1.43-3.9-2.96-6.17-3.94-1.82-.78-3.64-1.55-5.46-2.32-.21-.09-.45-.09-.77-.15-.78,2-1.1,4.05-1.3,6.15-.24,2.57-.01,5.13.01,7.7.03,3.51.04,7.02-.31,10.51-.08.81-.21,1.63-.4,2.42-.69,2.96-1.29,5.94-2.14,8.85-.61,2.07-1.59,4.02-2.35,6.04-1.19,3.17-2.37,6.34-3.05,9.67-.22,1.08-.35,2.21-.28,3.31.18,3.03.51,6.06.73,9.09.1,1.46.04,2.92.13,4.38.29,4.96.57,9.93.93,14.89.22,3.03.52,6.05.87,9.06.34,2.9.72,5.8,1.19,8.68.55,3.4,1.3,6.77,1.81,10.17.4,2.72,1.07,5.37,1.62,8.05.43,2.12,1,4.21,1.52,6.3.52,2.1,1.05,4.2,1.59,6.29.53,2.04,1.02,4.08,1.62,6.09.85,2.85,1.8,5.67,2.69,8.51.17.55.22,1.15.39,1.7.52,1.6,1.07,3.2,1.62,4.79.9,2.59,1.78,5.19,2.74,7.77.86,2.3,1.8,4.56,2.73,6.84,1.32,3.25,2.64,6.5,4,9.73.72,1.73,1.5,3.43,2.27,5.13,1.13,2.5,2.24,5.01,3.42,7.49,1.05,2.21,2.17,4.4,3.25,6.59.98,1.99,1.92,4,2.95,5.96.75,1.44,1.61,2.83,2.42,4.24.9,1.57,1.8,3.14,2.7,4.71.41.71.79,1.43,1.2,2.14,1.03,1.76,2.28,3.39,3.01,5.34.3.8.95,1.47,1.41,2.21.46.74.88,1.5,1.32,2.26.09.15.12.33.22.48,1.27,1.89,2.54,3.78,3.83,5.66.89,1.3,1.99,2.48,2.67,3.88.76,1.56,1.92,2.78,2.89,4.16,1.38,1.96,2.83,3.87,4.31,5.76,1.4,1.79,2.88,3.51,4.32,5.27,1.22,1.49,2.45,2.98,3.66,4.48,1.21,1.5,2.38,3.02,3.78,4.37,1.04,1.01,1.94,2.17,2.9,3.26.23.26.44.59.74.75,1.61.87,2.51,2.41,3.68,3.71.31.35.6.74.97,1.01,1.76,1.29,3.05,3.07,4.65,4.51,1.6,1.44,2.92,3.18,4.68,4.46.93.68,1.69,1.58,2.53,2.39.08.08.16.19.26.24,2.24,1.13,3.64,3.27,5.61,4.73.19.14.33.33.52.47,2,1.42,4,2.83,6,4.24.24.17.51.3.71.51,1.55,1.63,3.59,2.59,5.33,3.95,2.13,1.66,4.53,2.89,6.72,4.46,1.8,1.29,3.69,2.46,5.61,3.55,2.43,1.38,4.96,2.6,7.41,3.95,1.43.78,2.81,1.67,4.21,2.51.25.15.47.4.73.47,1.97.49,3.57,1.72,5.35,2.58.78.38,1.61.66,2.4,1.03,2.06.96,4.1,1.97,6.18,2.89,1.65.73,3.29,1.51,5.09,1.83.46.08.97.18,1.32.45.97.76,2.16.85,3.27,1.16,1.4.39,2.83.7,4.03,1.62.27.2.63.32.97.39,1.42.33,2.85.61,4.26.96,1.3.32,2.65.58,3.87,1.11,1.11.48,2.26.53,3.39.82,1.19.3,2.38.56,3.57.84,1.19.28,2.37.57,3.71.89-1.34.65-2.62,1.28-3.9,1.9-4.32,2.08-8.8,3.74-13.31,5.36-5.46,1.96-11.05,3.38-16.74,4.46-2.28.43-4.62.58-6.93.87-.58.07-1.15.2-1.73.25-1.38.12-2.77.23-4.15.31-1.45.08-2.91.21-4.36.17-1.98-.06-3.95-.26-5.93-.4-.23-.02-.47-.07-.7-.07-4.47,0-8.84-.8-13.2-1.68-2.79-.57-5.55-1.29-8.31-1.98-2.26-.57-4.43-1.39-6.6-2.23-3.91-1.52-7.79-3.09-11.51-5.05-2.06-1.09-4.25-1.94-6.32-3.01-1.91-.98-3.76-2.09-5.62-3.16-1.47-.84-2.82-1.9-4.28-2.69-1.55-.84-2.83-2.05-4.4-2.82-.4-.2-.69-.62-1.06-.9-.55-.42-1.14-.79-1.69-1.21-1.24-.95-2.59-1.73-3.65-2.93-.75-.85-1.9-1.35-2.7-2.17-.81-.83-1.5-1.77-2.65-2.17-.14-.22-.28-.44-.42-.66-.07.07-.14.14-.22.21.21.15.43.29.64.44.79,1.07,1.52,2.19,2.38,3.2,1.25,1.47,2.57,2.88,3.89,4.27,1.57,1.65,3.14,3.28,4.77,4.87,1.46,1.42,2.95,2.81,4.51,4.12,2.18,1.84,4.44,3.61,6.66,5.4,1.59,1.28,3.31,2.4,4.89,3.68,2.28,1.85,4.82,3.27,7.24,4.9,3.01,2.03,6.15,3.82,9.37,5.48,2.75,1.42,5.51,2.83,8.34,4.1,3.67,1.65,7.37,3.23,11.1,4.72,4.82,1.93,9.68,3.75,14.69,5.11,4.11,1.11,8.28,2.04,12.53,2.5,1.86.2,3.69.61,5.55.81,3.36.35,6.73.61,10.21.92-.19.22-.36.51-.61.69-1.9,1.37-3.87,2.61-5.98,3.65-1.2.59-2.33,1.33-3.51,1.97-1.18.64-2.37,1.25-3.57,1.87-1.5.78-3.06,1.42-4.5,2.34-.92.59-2.03.89-3.06,1.3-2.93,1.16-5.81,2.44-8.8,3.44-2.54.85-5.19,1.36-7.79,2.02-.4.1-.81.15-1.2.27-2.65.79-5.37,1.09-8.12,1.24-.64.03-1.27.21-1.91.3-.87.12-1.74.2-2.61.31-.57.07-1.14.17-1.71.25-.29.04-.58.1-.86.1-1.58.01-3.15.05-4.73,0-1.75-.04-3.5-.16-5.24-.24-.17,0-.35-.06-.52-.05-2.48.26-4.88-.4-7.31-.65-.17-.02-.35-.07-.52-.06-2.36.09-4.67-.39-6.94-.84-2.61-.51-5.29-.94-7.75-2.13-1.04-.5-2.18-.77-3.26-1.19-2.49-.99-4.99-1.98-7.46-3.03-1.77-.75-3.53-1.55-5.26-2.38-3-1.44-5.82-3.2-8.71-4.85-1.98-1.13-3.87-2.37-5.72-3.71-2.07-1.5-4.31-2.78-6.34-4.32-3.71-2.81-7.42-5.62-10.87-8.77-2.46-2.24-4.75-4.63-7.05-7.02-2.79-2.91-5.42-5.95-7.98-9.05-1.86-2.25-3.66-4.55-5.39-6.91-1.89-2.59-3.66-5.27-5.49-7.9-.09-.13-.25-.23-.53-.48.14.57.18.97.32,1.33,1.11,2.82,2.18,5.65,3.38,8.43.99,2.31,2.13,4.55,3.19,6.83,1.92,4.13,4.13,8.09,6.41,12.03,1.58,2.73,3.27,5.38,4.94,8.05,1.05,1.68,2.07,3.37,3.32,4.92,1.46,1.82,2.7,3.81,4.13,5.64,1.87,2.39,3.77,4.77,5.8,7.03,3.13,3.47,6.36,6.86,9.61,10.23,1.79,1.85,3.71,3.57,5.56,5.35.28.27.54.57,1.01,1.07-.55,0-.82.02-1.08,0-7.23-.57-14.47-1.11-21.56-2.82-7.75-1.87-15.28-4.38-22.52-7.76-5.74-2.68-11.26-5.74-16.45-9.38-4.95-3.47-9.51-7.41-13.83-11.62-4.75-4.63-9.16-9.55-13.02-14.94-3.96-5.54-7.33-11.42-10.25-17.57-2.94-6.19-5.47-12.55-7.55-19.08-2.41-7.53-4.33-15.19-5.61-22.99-.34-2.07-.43-4.19-.58-6.29-.22-2.97-.47-5.94-.56-8.91-.11-3.38-.07-6.77-.08-10.16,0-1.29,0-2.57,0-4.1-.68.77-.76,1.55-.9,2.27-.51,2.64-.99,5.28-1.41,7.94-.65,4.21-1.25,8.43-1.85,12.65-.36,2.54-.72,5.08-1.05,7.63-.17,1.33-.27,2.67-.38,4.01-.44,5.48-.85,10.96-.89,16.45-.03,4.2.06,8.4.15,12.6.07,3.16.22,6.31.33,9.47.02.52,0,1.04,0,1.57-.97.25-1.39-.33-1.73-.96-.56-1.03-1.05-2.09-1.59-3.13-1.28-2.49-2.58-4.97-3.84-7.47-.73-1.46-1.41-2.94-2.11-4.42-.75-1.58-1.5-3.15-2.24-4.73-.15-.32-.3-.64-.43-.96-1.77-4.44-3.54-8.89-4.89-13.49-1.78-6.07-3.19-12.22-4.21-18.46-.97-5.89-1.69-11.82-1.96-17.79-.19-4.15-.19-8.31-.14-12.47.06-4.45.18-8.9.44-13.34.63-10.64,1.89-21.21,4.24-31.63,2.24-9.88,5.06-19.6,8.3-29.19,1.19-3.54,2.48-7.04,3.92-10.5,1.78-4.25,3.48-8.53,5.53-12.66,1.42-2.87,2.72-5.81,4.1-8.7.58-1.21,1.23-2.38,1.87-3.56,1.79-3.27,3.47-6.61,5.44-9.79.16-.27.14-.65.2-.98.48-.19.71-.54.7-1.05.1-.1.21-.2.31-.3-.06-.05-.12-.1-.18-.14-.03.16-.06.32-.09.48-.47.19-.69.55-.71,1.05Zm-3.15-123.15c.48,1.42.89,2.69,1.33,3.96.73,2.1,1.48,4.19,2.2,6.29.27.8.65,1.47,1.49,1.82,1.23.52,2.42,1.15,3.66,1.66,2.32.95,4.63,1.91,6.99,2.74,1.54.54,3.15.86,4.74,1.27.85.22,1.69.47,2.55.59,1.79.26,3.59.48,5.39.66,1.8.18,3.61.46,5.4.36,2.32-.13,4.63-.62,6.95-.89,4.75-.55,9.25-1.93,13.55-3.99,2.38-1.14,4.23-2.88,5.42-5.28,1.18-2.38,1.79-4.93,2.45-7.47.08-.32.06-.66.1-1.09-.74-.22-1.4-.43-2.07-.61-.96-.25-1.96-.39-2.89-.71-4.24-1.45-8.6-2.56-12.72-4.39-2.93-1.3-5.96-2.37-8.96-3.5-.87-.33-1.78-.61-2.7-.71-1.38-.15-2.79-.17-4.18-.13-.68.02-1.42.17-2.01.49-2.01,1.07-3.98,2.18-6.22,2.78-2.07.55-4.06,1.44-6.11,2.09-1.83.58-3.71,1.03-5.56,1.55-2.86.81-5.71,1.63-8.78,2.51Zm5.04,120.4l.08-.14-.11-.02.03.16Z" fill="#fff"/>
</svg>