<svg width="147" height="146" viewBox="0 0 147 146" fill="none" xmlns="http://www.w3.org/2000/svg">
<rect x="0.0351562" y="0.916016" width="146.191" height="144.278" rx="29.8506" fill="url(#paint0_radial_638_451)"/>
<rect x="0.0351562" y="0.916016" width="146.191" height="144.278" rx="29.8506" fill="url(#paint1_radial_638_451)"/>
<g clip-path="url(#clip0_638_451)">
<g clip-path="url(#clip1_638_451)">
<path d="M43.7424 78.8097C43.6551 78.8857 43.5434 78.9444 43.4806 79.0341C42.7512 80.0801 42.0252 81.1295 41.3027 82.1824C40.5279 83.3147 39.746 84.44 38.9921 85.5861C38.5943 86.1902 38.2487 86.8323 37.8788 87.4571C37.4041 88.258 36.9259 89.0554 36.4547 89.8563C36.2314 90.2395 36.015 90.6296 35.809 91.0231C35.3378 91.9137 34.8702 92.8113 34.399 93.7019C34.3641 93.7709 34.3047 93.8262 34.2245 93.9297C34.1547 93.7399 34.0918 93.5983 34.0499 93.4499C33.4042 91.32 32.79 89.1866 32.3781 86.998C32.0675 85.3445 31.886 83.6806 31.9872 81.9925C32.0849 80.3286 32.4723 78.7234 33.0168 77.1459C33.9697 74.3773 35.5682 72.0092 37.5193 69.8517C39.8403 67.2868 42.5382 65.1707 45.4282 63.279C47.114 62.1743 48.7788 61.0455 50.3529 59.7889C51.4314 58.9259 52.4785 58.018 53.379 56.9652C53.6791 56.6165 53.9444 56.2402 54.105 55.7742C54.0526 55.8122 53.9933 55.8398 53.9514 55.8881C52.5902 57.4036 50.9358 58.5393 49.1593 59.5128C48.4473 59.9029 47.7003 60.2308 46.9674 60.5864C46.5451 60.79 46.1262 61.0006 45.7004 61.187C45.5015 61.2768 45.2851 61.3217 45.0652 61.3907C44.8628 61.0731 44.7895 60.759 44.7301 60.4448C44.5766 59.6267 44.2659 58.8603 43.9658 58.0905C43.6865 57.3725 43.3724 56.6752 42.9675 56.0228C42.615 55.4566 42.2451 54.9043 41.8751 54.3485C41.2364 53.3889 40.6046 52.4257 39.9485 51.4764C39.3132 50.5582 38.9468 49.5364 38.7443 48.4593C38.514 47.2304 38.6117 46.0084 38.9991 44.8209C39.2923 43.9199 39.6204 43.0292 39.952 42.1386C40.0846 41.7865 40.137 41.4413 40.0392 41.0754C39.7879 40.1399 39.5471 39.2009 39.2958 38.2654C39.2225 37.9962 39.1352 37.7338 39.041 37.4335C38.2697 37.6855 37.5646 37.9893 36.9015 38.369C36.193 38.7729 35.5333 39.2493 34.9365 39.8016C34.5805 40.1295 34.2594 40.4954 33.9278 40.851C33.7184 41.0788 33.495 41.2756 33.1774 41.3412C32.8807 41.4033 32.7132 41.3136 32.6294 41.0202C32.5072 40.6025 32.6504 40.202 32.8249 39.8568C33.0413 39.4322 33.3205 39.0042 33.6695 38.6831C34.4269 37.9893 35.2331 37.3403 36.0533 36.7154C36.4198 36.4358 36.8631 36.2529 37.2714 36.0319C37.6309 35.8386 37.9939 35.6522 38.3709 35.452C38.3988 35.1275 38.2522 34.8306 38.1824 34.5234C38.1301 34.2887 38.0568 34.0539 37.9939 33.8226C37.8788 33.3877 37.8997 33.2979 38.2452 33.0494C38.7653 32.68 39.3167 32.4038 39.9904 32.4038C40.486 32.4038 40.8699 32.5971 41.1456 32.97C41.3865 33.291 41.5714 33.6569 41.7704 34.0056C41.896 34.2265 41.9728 34.2714 42.2067 34.2024C43.4003 33.8606 44.594 33.5327 45.7842 33.1771C46.7475 32.8906 47.6445 32.4591 48.4438 31.8481C48.7474 31.6133 49.0336 31.3544 49.2989 31.0782C50.1261 30.2187 51.0894 29.618 52.2935 29.442C52.3528 29.4351 52.4087 29.404 52.5029 29.3729C52.5029 29.2418 52.5099 29.1037 52.5029 28.9656C52.4506 27.9369 52.4331 26.9047 52.3249 25.8829C52.2551 25.2167 52.5623 24.7644 52.9776 24.3364C53.4453 23.8531 53.8676 23.3422 54.2062 22.7623C54.5482 22.1789 54.5308 21.6369 54.098 21.1467C53.9863 21.019 53.8013 20.943 53.6338 20.8774C53.4069 20.7877 53.1731 20.7014 52.9322 20.6738C52.1888 20.5806 51.6653 21.0949 51.7176 21.8337C51.7281 21.9717 51.763 22.1133 51.749 22.2514C51.7211 22.5379 51.5431 22.7346 51.3127 22.7657C51.0405 22.8002 50.8136 22.7001 50.702 22.4585C50.6217 22.2824 50.5658 22.0718 50.5798 21.882C50.6461 20.9672 51.1906 20.3769 51.9864 19.9903C53.3127 19.3482 54.7402 20.0697 55.3231 21.0673C55.6058 21.5471 55.5813 22.0822 55.4208 22.5966C55.1485 23.4561 54.7192 24.2363 54.0386 24.8473C53.5849 25.2546 53.379 25.6723 53.4697 26.3213C53.5919 27.1912 53.543 28.0853 53.5709 28.969C53.5709 29.0657 53.5919 29.1658 53.6024 29.2694C54.0875 29.3384 54.5482 29.3936 55.0054 29.4696C55.1625 29.4972 55.3265 29.5421 55.4627 29.6249C56.0665 29.9943 56.7122 30.2946 57.2671 30.7399C57.7104 31.0955 58.1187 31.5063 58.5969 31.7997C59.2182 32.1795 59.7522 32.7007 60.4677 32.9285C60.5445 32.9527 60.6178 32.9976 60.6876 33.0356C61.6718 33.581 62.7294 33.94 63.7904 34.299C64.115 34.4095 64.4326 34.5268 64.8026 34.6546C64.9806 34.2334 65.1691 33.8537 65.3017 33.4602C65.4448 33.0425 65.6926 32.8181 66.1498 32.8181C66.5791 32.8181 67.0084 32.7801 67.4342 32.7905C67.6751 32.7974 67.9264 32.8388 68.1497 32.9182C68.5127 33.0494 68.6489 33.2979 68.586 33.6776C68.5162 34.0953 68.422 34.5096 68.3417 34.9238C68.3033 35.1171 68.2684 35.3139 68.2335 35.5107C68.7256 35.6902 69.1759 35.8593 69.6296 36.0181C70.4987 36.3254 71.2596 36.8087 72.0169 37.3334C72.7953 37.8719 73.2979 38.6037 73.8249 39.339C74.132 39.7671 74.0971 40.2193 73.9959 40.6749C73.9052 41.0926 73.5073 41.1997 73.2176 40.8821C72.8476 40.4747 72.4881 40.0605 72.0414 39.7394C71.3503 39.2458 70.6802 38.7176 69.8879 38.3793C69.2527 38.1101 68.6174 37.8443 67.9822 37.5785C67.9089 37.5474 67.8251 37.5474 67.7135 37.5267C67.4412 38.2171 67.3295 38.9248 67.2597 39.6497C67.176 40.5369 67.2562 41.4206 67.2632 42.3078C67.2737 43.5194 67.2772 44.7311 67.155 45.9359C67.1271 46.2155 67.0817 46.4986 67.0154 46.7713C66.7746 47.7931 66.5652 48.8218 66.2685 49.8263C66.0556 50.5409 65.7135 51.2141 65.4483 51.9114C65.0329 53.0057 64.6211 54.1 64.3838 55.2495C64.307 55.6223 64.2616 56.0124 64.286 56.3921C64.3489 57.4381 64.464 58.4841 64.5408 59.53C64.5757 60.034 64.5548 60.538 64.5862 61.042C64.6874 62.7543 64.7851 64.4699 64.9108 66.1821C64.9876 67.2281 65.0923 68.2706 65.2144 69.3097C65.3331 70.3108 65.4657 71.3119 65.6298 72.3061C65.8217 73.4798 66.0835 74.6431 66.2615 75.8168C66.4011 76.7558 66.635 77.6706 66.8269 78.5957C66.977 79.3276 67.176 80.049 67.3575 80.7705C67.5389 81.4954 67.7239 82.2204 67.9124 82.9418C68.0974 83.6461 68.2684 84.3503 68.4778 85.0442C68.7745 86.028 69.1061 87.0015 69.4167 87.9818C69.476 88.1717 69.4935 88.3788 69.5528 88.5687C69.7343 89.121 69.9263 89.6733 70.1182 90.2222C70.4324 91.1163 70.7395 92.0138 71.0746 92.9045C71.3747 93.6984 71.7028 94.4786 72.0274 95.2657C72.4881 96.3876 72.9488 97.5095 73.4235 98.6245C73.6748 99.2217 73.9471 99.8086 74.2158 100.395C74.6102 101.258 74.9976 102.125 75.4095 102.981C75.776 103.744 76.1669 104.5 76.5438 105.256C76.8859 105.943 77.2139 106.637 77.5734 107.313C77.8352 107.81 78.1354 108.29 78.4181 108.777C78.7322 109.319 79.0463 109.861 79.3604 110.403C79.5035 110.648 79.6362 110.897 79.7793 111.142C80.1388 111.749 80.5751 112.312 80.8298 112.985C80.9346 113.261 81.1614 113.492 81.322 113.748C81.4825 114.003 81.6291 114.266 81.7827 114.528C81.8141 114.58 81.8246 114.642 81.8595 114.694C82.3027 115.346 82.746 115.999 83.1962 116.648C83.5069 117.096 83.8908 117.504 84.1281 117.987C84.3934 118.526 84.7983 118.947 85.1368 119.423C85.6185 120.1 86.1246 120.759 86.6411 121.411C87.1298 122.029 87.6463 122.623 88.1489 123.231C88.5747 123.745 89.004 124.259 89.4263 124.777C89.8487 125.295 90.257 125.82 90.7457 126.286C91.1087 126.634 91.4228 127.035 91.7578 127.411C91.8381 127.501 91.9114 127.615 92.0161 127.67C92.578 127.97 92.8922 128.502 93.3005 128.951C93.4087 129.072 93.5099 129.206 93.6391 129.299C94.2534 129.745 94.7036 130.359 95.2621 130.856C95.8205 131.353 96.2812 131.954 96.8955 132.396C97.2201 132.631 97.4854 132.941 97.7785 133.221C97.8064 133.249 97.8344 133.287 97.8693 133.304C98.6511 133.694 99.1397 134.433 99.8273 134.937C99.8936 134.985 99.9425 135.051 100.009 135.099C100.707 135.589 101.405 136.076 102.103 136.563C102.187 136.621 102.281 136.666 102.351 136.739C102.892 137.301 103.604 137.633 104.211 138.102C104.954 138.675 105.792 139.1 106.557 139.642C107.185 140.087 107.844 140.491 108.515 140.867C109.363 141.344 110.246 141.765 111.101 142.231C111.6 142.5 112.082 142.807 112.57 143.097C112.657 143.149 112.734 143.235 112.825 143.26C113.513 143.429 114.071 143.853 114.692 144.15C114.965 144.281 115.254 144.378 115.53 144.506C116.249 144.837 116.961 145.186 117.687 145.503C118.263 145.755 118.835 146.025 119.463 146.135C119.624 146.163 119.802 146.197 119.924 146.29C120.263 146.553 120.678 146.584 121.066 146.691C121.554 146.826 122.053 146.933 122.472 147.25C122.566 147.319 122.692 147.361 122.811 147.385C123.306 147.499 123.805 147.595 124.297 147.716C124.751 147.827 125.222 147.916 125.648 148.099C126.036 148.265 126.437 148.282 126.831 148.382C127.247 148.486 127.662 148.576 128.077 148.672C128.493 148.769 128.905 148.869 129.372 148.98C128.905 149.204 128.458 149.421 128.011 149.635C126.503 150.354 124.94 150.927 123.366 151.486C121.46 152.162 119.509 152.653 117.523 153.025C116.727 153.174 115.91 153.226 115.104 153.326C114.902 153.35 114.703 153.395 114.5 153.412C114.019 153.453 113.534 153.491 113.052 153.519C112.546 153.547 112.036 153.592 111.53 153.578C110.839 153.557 110.151 153.488 109.46 153.44C109.38 153.433 109.296 153.415 109.216 153.415C107.656 153.415 106.131 153.139 104.609 152.836C103.635 152.639 102.672 152.39 101.709 152.152C100.92 151.955 100.162 151.672 99.405 151.382C98.0403 150.857 96.6861 150.316 95.3877 149.639C94.6687 149.263 93.9043 148.969 93.1819 148.6C92.5152 148.262 91.8695 147.878 91.2203 147.509C90.7073 147.219 90.2361 146.853 89.7265 146.58C89.1855 146.29 88.7388 145.873 88.1908 145.607C88.0512 145.538 87.95 145.393 87.8208 145.296C87.6289 145.151 87.4229 145.024 87.231 144.879C86.7982 144.551 86.327 144.281 85.957 143.867C85.6953 143.574 85.2939 143.401 85.0147 143.118C84.732 142.831 84.4911 142.507 84.0897 142.369C84.0409 142.293 83.992 142.217 83.9432 142.141C83.9187 142.165 83.8943 142.189 83.8664 142.214C83.9397 142.265 84.0165 142.314 84.0897 142.365C84.3655 142.735 84.6203 143.121 84.9204 143.47C85.3567 143.978 85.8174 144.464 86.2781 144.944C86.8261 145.514 87.3741 146.076 87.943 146.625C88.4526 147.115 88.9726 147.595 89.5171 148.048C90.278 148.683 91.0668 149.294 91.8416 149.912C92.3966 150.353 92.9969 150.74 93.5483 151.182C94.3441 151.821 95.2306 152.311 96.0753 152.873C97.1259 153.574 98.2218 154.192 99.3456 154.765C100.305 155.255 101.269 155.742 102.257 156.181C103.537 156.75 104.829 157.296 106.131 157.81C107.813 158.476 109.509 159.104 111.258 159.574C112.692 159.957 114.148 160.278 115.631 160.437C116.28 160.506 116.919 160.648 117.568 160.717C118.741 160.837 119.917 160.927 121.132 161.034C121.066 161.11 121.006 161.21 120.919 161.272C120.256 161.745 119.568 162.173 118.832 162.532C118.413 162.736 118.019 162.991 117.607 163.212C117.195 163.433 116.779 163.644 116.361 163.858C115.837 164.127 115.293 164.348 114.79 164.666C114.469 164.869 114.082 164.973 113.722 165.114C112.699 165.515 111.694 165.957 110.651 166.302C109.764 166.595 108.839 166.771 107.932 166.999C107.792 167.034 107.649 167.051 107.513 167.092C106.588 167.365 105.639 167.469 104.679 167.521C104.455 167.531 104.236 167.593 104.012 167.624C103.708 167.666 103.405 167.693 103.101 167.731C102.902 167.755 102.703 167.79 102.504 167.817C102.403 167.831 102.302 167.852 102.204 167.852C101.653 167.855 101.105 167.869 100.553 167.852C99.9425 167.838 99.3317 167.797 98.7244 167.769C98.6651 167.769 98.6022 167.748 98.5429 167.752C97.6773 167.842 96.8397 167.614 95.9915 167.527C95.9322 167.521 95.8694 167.503 95.81 167.507C94.9863 167.538 94.1801 167.372 93.3878 167.217C92.4768 167.041 91.5414 166.892 90.6828 166.481C90.3199 166.309 89.922 166.216 89.545 166.071C88.6759 165.729 87.8034 165.387 86.9413 165.025C86.3235 164.766 85.7092 164.49 85.1054 164.203C84.0583 163.706 83.0741 163.098 82.0654 162.529C81.3743 162.139 80.7147 161.711 80.069 161.248C79.3465 160.73 78.5647 160.288 77.8561 159.757C76.5613 158.787 75.2664 157.817 74.0622 156.729C73.2036 155.956 72.4044 155.131 71.6016 154.306C70.6278 153.302 69.7099 152.252 68.8164 151.182C68.1672 150.405 67.5389 149.611 66.9351 148.797C66.2755 147.903 65.6577 146.977 65.019 146.069C64.9876 146.025 64.9317 145.99 64.834 145.904C64.8829 146.101 64.8968 146.239 64.9457 146.363C65.3331 147.336 65.7066 148.313 66.1254 149.273C66.4709 150.07 66.8688 150.844 67.2388 151.631C67.9089 153.056 68.6803 154.423 69.476 155.784C70.0275 156.726 70.6174 157.641 71.2002 158.562C71.5667 159.142 71.9227 159.726 72.359 160.261C72.8686 160.889 73.3014 161.576 73.8005 162.208C74.4531 163.033 75.1163 163.854 75.8248 164.635C76.9173 165.832 78.0446 167.003 79.179 168.166C79.8037 168.805 80.4738 169.398 81.1195 170.013C81.2173 170.106 81.308 170.21 81.4721 170.382C81.2801 170.382 81.1859 170.389 81.0951 170.382C78.5717 170.186 76.0447 169.999 73.5701 169.409C70.8652 168.763 68.237 167.897 65.7101 166.73C63.7066 165.805 61.78 164.749 59.9686 163.492C58.2409 162.294 56.6493 160.934 55.1416 159.481C53.4837 157.882 51.9445 156.184 50.5972 154.323C49.2151 152.411 48.0389 150.381 47.0197 148.258C45.9936 146.121 45.1106 143.926 44.3846 141.672C43.5434 139.072 42.8733 136.428 42.4266 133.735C42.3079 133.021 42.2765 132.289 42.2241 131.564C42.1473 130.539 42.0601 129.513 42.0287 128.488C41.9903 127.321 42.0042 126.151 42.0007 124.981C42.0007 124.536 42.0007 124.094 42.0007 123.566C41.7634 123.831 41.7355 124.101 41.6866 124.349C41.5086 125.261 41.3411 126.172 41.1945 127.09C40.9676 128.543 40.7582 130 40.5488 131.457C40.4232 132.334 40.2975 133.211 40.1823 134.091C40.123 134.55 40.0881 135.013 40.0497 135.475C39.8961 137.367 39.753 139.259 39.7391 141.154C39.7286 142.604 39.76 144.054 39.7914 145.503C39.8158 146.594 39.8682 147.682 39.9066 148.772C39.9136 148.952 39.9066 149.131 39.9066 149.314C39.568 149.401 39.4214 149.201 39.3028 148.983C39.1073 148.627 38.9363 148.262 38.7478 147.903C38.3011 147.043 37.8473 146.187 37.4076 145.324C37.1528 144.82 36.9154 144.309 36.6711 143.798C36.4094 143.253 36.1476 142.711 35.8893 142.165C35.837 142.055 35.7846 141.944 35.7392 141.834C35.1215 140.301 34.5037 138.765 34.0325 137.177C33.4112 135.082 32.9191 132.959 32.5631 130.805C32.2245 128.771 31.9732 126.724 31.879 124.663C31.8127 123.231 31.8127 121.795 31.8301 120.359C31.8511 118.822 31.893 117.286 31.9837 115.754C32.2036 112.081 32.6434 108.432 33.4636 104.835C34.2454 101.424 35.2296 98.0687 36.3605 94.7582C36.7758 93.5362 37.2261 92.328 37.7287 91.1336C38.3499 89.6664 38.9433 88.189 39.6588 86.7633C40.1544 85.7725 40.6081 84.7576 41.0898 83.76C41.2922 83.3423 41.5191 82.9384 41.7425 82.5311C42.3672 81.4022 42.9536 80.2493 43.6412 79.1515C43.697 79.0583 43.69 78.9271 43.711 78.8132C43.8785 78.7476 43.9588 78.6268 43.9553 78.4507C43.9902 78.4162 44.0286 78.3817 44.0635 78.3472C44.0425 78.3299 44.0216 78.3127 44.0007 78.2988C43.9902 78.3541 43.9797 78.4093 43.9693 78.4645C43.8052 78.5301 43.7284 78.6544 43.7214 78.827L43.7424 78.8097ZM42.643 36.2977C42.8105 36.7879 42.9536 37.2264 43.1072 37.6648C43.3619 38.3897 43.6237 39.1112 43.875 39.8361C43.9693 40.1123 44.1019 40.3435 44.3951 40.4644C44.8244 40.6439 45.2397 40.8614 45.6725 41.0374C46.4822 41.3654 47.2885 41.6968 48.1122 41.9833C48.6497 42.1697 49.2116 42.2801 49.7666 42.4217C50.0632 42.4976 50.3564 42.5839 50.6566 42.6254C51.2813 42.7151 51.9096 42.7911 52.5378 42.8532C53.1661 42.9153 53.7978 43.012 54.4226 42.9775C55.2323 42.9326 56.0386 42.7634 56.8483 42.6702C58.5062 42.4804 60.0768 42.004 61.5776 41.2929C62.4083 40.8993 63.054 40.2987 63.4693 39.4702C63.8812 38.6486 64.0941 37.7683 64.3244 36.8915C64.3523 36.781 64.3454 36.6637 64.3593 36.5152C64.101 36.4393 63.8707 36.3668 63.6368 36.3047C63.3018 36.2184 62.9528 36.17 62.6282 36.0596C61.1483 35.559 59.6265 35.1758 58.1886 34.5441C57.1659 34.0953 56.1084 33.726 55.0613 33.3359C54.7576 33.222 54.44 33.1253 54.1189 33.0908C53.6373 33.039 53.1451 33.0321 52.66 33.0459C52.4227 33.0528 52.1644 33.1046 51.9584 33.2151C51.2569 33.5844 50.5693 33.9676 49.7875 34.1747C49.065 34.3646 48.3705 34.6718 47.655 34.8962C47.0162 35.0964 46.3601 35.2518 45.7144 35.4313C44.7162 35.7109 43.7214 35.994 42.6499 36.2977H42.643ZM44.402 77.8604L44.43 77.8121L44.3916 77.8052L44.402 77.8604Z" fill="white"/>
</g>
<g filter="url(#filter0_d_638_451)">
<path d="M78.1188 42.871C84.1147 45.8775 84.3669 46.608 81.4307 54.8596C81.418 54.8954 81.4815 54.9217 81.4978 54.8868C85.1618 46.9314 85.8523 46.5848 92.2429 48.6223C92.2846 48.6355 92.3046 48.5874 92.2651 48.5674C86.2692 45.5609 86.017 44.8304 88.9532 36.5788C88.9659 36.543 88.9024 36.5167 88.8861 36.5516C85.2221 44.507 84.5316 44.8536 78.141 42.8156C78.0993 42.8029 78.0798 42.851 78.1188 42.871Z" fill="url(#paint2_linear_638_451)"/>
</g>
<g filter="url(#filter1_d_638_451)">
<path d="M111.879 119.614C109.845 114.909 109.315 114.633 104.295 115.675C109.001 113.64 109.276 113.11 108.234 108.091C110.269 112.796 110.799 113.072 115.818 112.03C111.113 114.064 110.838 114.594 111.879 119.614Z" fill="url(#paint3_linear_638_451)"/>
</g>
<g filter="url(#filter2_d_638_451)">
<path d="M25.4015 110.866C21.4273 107.628 20.8297 107.628 16.8555 110.866C20.0934 106.891 20.0934 106.294 16.8555 102.32C20.8297 105.558 21.4273 105.558 25.4015 102.32C22.1636 106.294 22.1636 106.891 25.4015 110.866Z" fill="url(#paint4_linear_638_451)"/>
</g>
<g filter="url(#filter3_d_638_451)">
<rect x="104.895" y="13.9277" width="24.8755" height="13.3945" rx="6.69725" fill="url(#paint5_linear_638_451)" shape-rendering="crispEdges"/>
<rect x="104.703" y="13.7364" width="25.2582" height="13.7772" rx="6.8886" stroke="white" stroke-opacity="0.76" stroke-width="0.3827" shape-rendering="crispEdges"/>
</g>
<path d="M114.846 17.6633H116.042L118.732 23.2244H117.547L117.102 22.2886H113.854L113.423 23.2244H112.235L114.846 17.6633ZM116.657 21.36L115.455 18.8339L114.284 21.36H116.657ZM119.454 17.6633H120.589V23.2244H119.454V17.6633Z" fill="#BD5BBB"/>
</g>
<defs>
<filter id="filter0_d_638_451" x="72.7016" y="31.1391" width="24.9796" height="29.1603" filterUnits="userSpaceOnUse" color-interpolation-filters="sRGB">
<feFlood flood-opacity="0" result="BackgroundImageFix"/>
<feColorMatrix in="SourceAlpha" type="matrix" values="0 0 0 0 0 0 0 0 0 0 0 0 0 0 0 0 0 0 127 0" result="hardAlpha"/>
<feOffset/>
<feGaussianBlur stdDeviation="2.69804"/>
<feComposite in2="hardAlpha" operator="out"/>
<feColorMatrix type="matrix" values="0 0 0 0 1 0 0 0 0 1 0 0 0 0 1 0 0 0 0.6 0"/>
<feBlend mode="normal" in2="BackgroundImageFix" result="effect1_dropShadow_638_451"/>
<feBlend mode="normal" in="SourceGraphic" in2="effect1_dropShadow_638_451" result="shape"/>
</filter>
<filter id="filter1_d_638_451" x="98.9008" y="102.695" width="22.3156" height="22.3153" filterUnits="userSpaceOnUse" color-interpolation-filters="sRGB">
<feFlood flood-opacity="0" result="BackgroundImageFix"/>
<feColorMatrix in="SourceAlpha" type="matrix" values="0 0 0 0 0 0 0 0 0 0 0 0 0 0 0 0 0 0 127 0" result="hardAlpha"/>
<feOffset/>
<feGaussianBlur stdDeviation="2.69804"/>
<feComposite in2="hardAlpha" operator="out"/>
<feColorMatrix type="matrix" values="0 0 0 0 1 0 0 0 0 1 0 0 0 0 1 0 0 0 0.6 0"/>
<feBlend mode="normal" in2="BackgroundImageFix" result="effect1_dropShadow_638_451"/>
<feBlend mode="normal" in="SourceGraphic" in2="effect1_dropShadow_638_451" result="shape"/>
</filter>
<filter id="filter2_d_638_451" x="11.4594" y="96.9238" width="19.339" height="19.3383" filterUnits="userSpaceOnUse" color-interpolation-filters="sRGB">
<feFlood flood-opacity="0" result="BackgroundImageFix"/>
<feColorMatrix in="SourceAlpha" type="matrix" values="0 0 0 0 0 0 0 0 0 0 0 0 0 0 0 0 0 0 127 0" result="hardAlpha"/>
<feOffset/>
<feGaussianBlur stdDeviation="2.69804"/>
<feComposite in2="hardAlpha" operator="out"/>
<feColorMatrix type="matrix" values="0 0 0 0 1 0 0 0 0 1 0 0 0 0 1 0 0 0 0.6 0"/>
<feBlend mode="normal" in2="BackgroundImageFix" result="effect1_dropShadow_638_451"/>
<feBlend mode="normal" in="SourceGraphic" in2="effect1_dropShadow_638_451" result="shape"/>
</filter>
<filter id="filter3_d_638_451" x="102.292" y="11.3253" width="30.0799" height="18.5992" filterUnits="userSpaceOnUse" color-interpolation-filters="sRGB">
<feFlood flood-opacity="0" result="BackgroundImageFix"/>
<feColorMatrix in="SourceAlpha" type="matrix" values="0 0 0 0 0 0 0 0 0 0 0 0 0 0 0 0 0 0 127 0" result="hardAlpha"/>
<feOffset/>
<feGaussianBlur stdDeviation="1.10983"/>
<feComposite in2="hardAlpha" operator="out"/>
<feColorMatrix type="matrix" values="0 0 0 0 0.336768 0 0 0 0 0.336768 0 0 0 0 0.336768 0 0 0 0.15 0"/>
<feBlend mode="normal" in2="BackgroundImageFix" result="effect1_dropShadow_638_451"/>
<feBlend mode="normal" in="SourceGraphic" in2="effect1_dropShadow_638_451" result="shape"/>
</filter>
<radialGradient id="paint0_radial_638_451" cx="0" cy="0" r="1" gradientUnits="userSpaceOnUse" gradientTransform="translate(63.9461 72.8636) rotate(22.3996) scale(91.8928 93.1116)">
<stop stop-color="#F6666F"/>
<stop offset="1" stop-color="#7736F4"/>
</radialGradient>
<radialGradient id="paint1_radial_638_451" cx="0" cy="0" r="1" gradientUnits="userSpaceOnUse" gradientTransform="translate(129.005 125.868) rotate(-136.049) scale(155.221 157.279)">
<stop stop-color="#4900A6"/>
<stop offset="0.200165" stop-color="#6F0CAF" stop-opacity="0.81209"/>
<stop offset="0.49" stop-color="#A61DBD" stop-opacity="0.54"/>
<stop offset="1" stop-color="#FFB89A"/>
</radialGradient>
<linearGradient id="paint2_linear_638_451" x1="85.192" y1="36.5352" x2="86.7177" y2="83.7184" gradientUnits="userSpaceOnUse">
<stop stop-color="#FFE1F7"/>
<stop offset="1" stop-color="#C643EB"/>
</linearGradient>
<linearGradient id="paint3_linear_638_451" x1="112.026" y1="110.06" x2="102.39" y2="129.803" gradientUnits="userSpaceOnUse">
<stop stop-color="#FFE1F7"/>
<stop offset="1" stop-color="#C643EB"/>
</linearGradient>
<linearGradient id="paint4_linear_638_451" x1="21.1285" y1="102.32" x2="21.677" y2="124.282" gradientUnits="userSpaceOnUse">
<stop stop-color="#FFE1F7"/>
<stop offset="1" stop-color="#C643EB"/>
</linearGradient>
<linearGradient id="paint5_linear_638_451" x1="129.77" y1="20.625" x2="104.895" y2="20.625" gradientUnits="userSpaceOnUse">
<stop stop-color="#FCD6FF"/>
<stop offset="1" stop-color="white"/>
</linearGradient>
<clipPath id="clip0_638_451">
<rect x="0.0351562" y="0.916016" width="146.191" height="144.278" rx="28.7025" fill="white"/>
</clipPath>
<clipPath id="clip1_638_451">
<rect width="97.5422" height="150.623" fill="white" transform="translate(31.8281 19.7493)"/>
</clipPath>
</defs>
</svg>
