<svg width="126" height="24" viewBox="0 0 126 24" fill="none" xmlns="http://www.w3.org/2000/svg">
<path d="M123.849 7.66188C121.292 5.51088 120.903 5.50474 118.279 7.57401C120.43 5.01702 120.436 4.62792 118.367 2.00464C120.924 4.15564 121.313 4.16178 123.937 2.09251C121.786 4.64921 121.779 5.0383 123.849 7.66188Z" fill="white"/>
<mask id="mask0_664_221" style="mask-type:alpha" maskUnits="userSpaceOnUse" x="1" y="4" width="123" height="20">
<path d="M1.43455 14.0651C1.43455 12.8075 1.67176 11.6365 2.14618 10.5522C2.6206 9.46023 3.30587 8.51516 4.202 7.71693C5.10565 6.91117 6.2051 6.27862 7.50034 5.81926C8.80311 5.3599 10.2753 5.13022 11.917 5.13022C13.3553 5.13022 14.6731 5.27706 15.8704 5.57075C17.0753 5.85691 18.1936 6.29744 19.2253 6.89235L17.5761 9.60331C17.2673 9.39999 16.9096 9.21926 16.503 9.06112C16.1039 8.90298 15.6747 8.7712 15.2153 8.66577C14.7635 8.55281 14.2928 8.46621 13.8033 8.40597C13.3214 8.34573 12.8432 8.31561 12.3688 8.31561C11.2241 8.31561 10.2038 8.45868 9.30765 8.74484C8.41152 9.02347 7.65471 9.41882 7.03721 9.93089C6.42725 10.4354 5.96036 11.0416 5.63655 11.7495C5.32027 12.4498 5.16213 13.2217 5.16213 14.0651C5.16213 14.9386 5.3278 15.7406 5.65914 16.4711C5.99048 17.2015 6.46866 17.8341 7.09369 18.3688C7.72625 18.8959 8.49436 19.3101 9.39801 19.6113C10.3092 19.905 11.3371 20.0518 12.4817 20.0518C13.0013 20.0518 13.5172 20.0142 14.0292 19.9389C14.5413 19.8636 15.0346 19.7619 15.509 19.6339C15.9909 19.4983 16.4541 19.3402 16.8983 19.1595C17.3426 18.9712 17.7568 18.7679 18.1409 18.5495L19.79 21.2605C18.8261 21.878 17.7116 22.3637 16.4465 22.7176C15.1814 23.064 13.8372 23.2372 12.414 23.2372C10.5991 23.2372 9.00643 23.0038 7.63589 22.5369C6.26534 22.0625 5.12071 21.4148 4.202 20.594C3.28328 19.7657 2.59048 18.7942 2.12359 17.6797C1.66423 16.5577 1.43455 15.3528 1.43455 14.0651ZM23.416 4.26045H26.7595V23H23.416V4.26045ZM30.2499 16.3355C30.2499 15.3792 30.4419 14.4831 30.8259 13.6472C31.2175 12.8113 31.771 12.0808 32.4864 11.4558C33.2093 10.8308 34.0791 10.3375 35.0957 9.97607C36.1198 9.61461 37.2682 9.43388 38.5409 9.43388C39.8135 9.43388 40.9582 9.61461 41.9748 9.97607C42.9989 10.3375 43.8687 10.8308 44.5841 11.4558C45.307 12.0808 45.8605 12.8113 46.2445 13.6472C46.6361 14.4831 46.8319 15.3792 46.8319 16.3355C46.8319 17.2919 46.6361 18.188 46.2445 19.0239C45.8605 19.8598 45.307 20.5903 44.5841 21.2153C43.8687 21.8403 42.9989 22.3336 41.9748 22.695C40.9582 23.0565 39.8135 23.2372 38.5409 23.2372C37.2682 23.2372 36.1198 23.0565 35.0957 22.695C34.0791 22.3336 33.2093 21.8403 32.4864 21.2153C31.771 20.5903 31.2175 19.8598 30.8259 19.0239C30.4419 18.188 30.2499 17.2919 30.2499 16.3355ZM33.7628 16.3355C33.7628 16.8702 33.8682 17.3785 34.0791 17.8605C34.2975 18.3349 34.61 18.7566 35.0166 19.1256C35.4308 19.487 35.9316 19.777 36.519 19.9953C37.1139 20.2062 37.7878 20.3116 38.5409 20.3116C39.2939 20.3116 39.9641 20.2062 40.5515 19.9953C41.1464 19.777 41.6472 19.487 42.0538 19.1256C42.468 18.7566 42.7805 18.3349 42.9914 17.8605C43.2098 17.3785 43.319 16.8702 43.319 16.3355C43.319 15.8009 43.2098 15.2926 42.9914 14.8106C42.7805 14.3287 42.468 13.907 42.0538 13.5455C41.6472 13.1765 41.1464 12.8866 40.5515 12.6757C39.9641 12.4574 39.2939 12.3482 38.5409 12.3482C37.7878 12.3482 37.1139 12.4574 36.519 12.6757C35.9316 12.8866 35.4308 13.1765 35.0166 13.5455C34.61 13.907 34.2975 14.3287 34.0791 14.8106C33.8682 15.2926 33.7628 15.8009 33.7628 16.3355ZM50.7402 18.911C51.6439 19.4532 52.6379 19.8523 53.7223 20.1083C54.8067 20.3643 55.9174 20.4924 57.0545 20.4924C57.8226 20.4924 58.4627 20.4396 58.9748 20.3342C59.4869 20.2288 59.8973 20.0932 60.206 19.9276C60.5148 19.7619 60.7332 19.5736 60.8612 19.3628C60.9892 19.1519 61.0532 18.9373 61.0532 18.7189C61.0532 18.4027 60.9139 18.1316 60.6353 17.9056C60.3642 17.6797 59.9123 17.5668 59.2798 17.5668C58.9861 17.5668 58.6698 17.5856 58.3309 17.6233C57.9921 17.6609 57.6344 17.7023 57.2578 17.7475C56.8889 17.7852 56.501 17.8228 56.0944 17.8605C55.6953 17.8981 55.2886 17.9169 54.8745 17.9169C53.9708 17.9169 53.1989 17.819 52.5588 17.6233C51.9263 17.4275 51.4104 17.1601 51.0113 16.8213C50.6122 16.4824 50.3223 16.0833 50.1416 15.6239C49.9608 15.157 49.8705 14.6563 49.8705 14.1216C49.8705 13.4438 50.0286 12.8188 50.3449 12.2465C50.6612 11.6742 51.113 11.1809 51.7004 10.7668C52.2877 10.3451 52.9956 10.0175 53.824 9.78404C54.6598 9.5506 55.5898 9.43388 56.614 9.43388C57.1487 9.43388 57.7059 9.46777 58.2858 9.53554C58.8731 9.59578 59.4492 9.67862 60.014 9.78404C60.5788 9.88947 61.121 10.0137 61.6406 10.1568C62.1602 10.2924 62.6195 10.4392 63.0186 10.5973L61.9681 13.1953C61.1172 12.8791 60.2663 12.6306 59.4153 12.4498C58.5719 12.2616 57.7021 12.1674 56.806 12.1674C56.181 12.1674 55.6501 12.2164 55.2133 12.3143C54.7841 12.4046 54.4339 12.5289 54.1628 12.687C53.8917 12.8376 53.6922 13.0146 53.5642 13.2179C53.4437 13.4137 53.3834 13.6208 53.3834 13.8392C53.3834 13.9973 53.4135 14.1404 53.4738 14.2684C53.5416 14.3965 53.647 14.5094 53.7901 14.6073C53.9407 14.6977 54.1327 14.7692 54.3661 14.8219C54.6071 14.8671 54.9008 14.8897 55.2472 14.8897C55.5635 14.8897 55.8986 14.8709 56.2525 14.8332C56.6065 14.7956 56.9755 14.7579 57.3595 14.7203C57.7436 14.6751 58.1389 14.6337 58.5456 14.596C58.9597 14.5584 59.3814 14.5395 59.8107 14.5395C60.6089 14.5395 61.3055 14.6337 61.9004 14.8219C62.5028 15.0102 62.9998 15.2737 63.3914 15.6126C63.783 15.9515 64.0767 16.3506 64.2725 16.81C64.4683 17.2693 64.5662 17.7701 64.5662 18.3123C64.5662 19.0126 64.4043 19.664 64.0804 20.2664C63.7566 20.8689 63.2747 21.3922 62.6346 21.8365C61.9945 22.2733 61.1963 22.6159 60.2399 22.8645C59.2911 23.113 58.1916 23.2372 56.9416 23.2372C56.1735 23.2372 55.4317 23.1883 54.7163 23.0904C54.0009 23 53.3194 22.8757 52.6718 22.7176C52.0242 22.5519 51.4142 22.3599 50.8419 22.1415C50.2771 21.9231 49.7613 21.6897 49.2944 21.4412L50.7402 18.911ZM66.9495 16.2904C66.9495 15.3867 67.134 14.5245 67.503 13.7036C67.872 12.8753 68.4029 12.1448 69.0957 11.5123C69.7885 10.8797 70.6357 10.3752 71.6373 9.99866C72.6463 9.62214 73.791 9.43388 75.0711 9.43388C76.3438 9.43388 77.4884 9.62591 78.505 10.01C79.5292 10.3865 80.3952 10.9061 81.103 11.5688C81.8184 12.2314 82.3644 13.0108 82.7409 13.907C83.125 14.8031 83.317 15.7632 83.317 16.7874C83.317 16.9154 83.3132 17.0547 83.3057 17.2053C83.3057 17.3484 83.2982 17.4802 83.2831 17.6007H70.6771C70.8202 17.9998 71.0499 18.365 71.3662 18.6963C71.69 19.0277 72.0928 19.3138 72.5748 19.5548C73.0567 19.7958 73.614 19.9841 74.2466 20.1196C74.8791 20.2476 75.5795 20.3116 76.3476 20.3116C77.1157 20.3116 77.88 20.2326 78.6406 20.0744C79.4012 19.9087 80.1278 19.7017 80.8207 19.4532L81.9502 22.006C81.5135 22.2093 81.0692 22.39 80.6173 22.5482C80.173 22.6988 79.7061 22.8268 79.2167 22.9322C78.7347 23.0301 78.2264 23.1054 77.6917 23.1581C77.1646 23.2109 76.6074 23.2372 76.02 23.2372C74.5214 23.2372 73.2074 23.0565 72.0778 22.695C70.9482 22.3336 70.0031 21.8403 69.2426 21.2153C68.482 20.5903 67.9097 19.856 67.5256 19.0126C67.1416 18.1692 66.9495 17.2618 66.9495 16.2904ZM79.7702 14.9914C79.6497 14.6224 79.4614 14.2797 79.2054 13.9634C78.9569 13.6396 78.6443 13.361 78.2678 13.1276C77.8913 12.8866 77.4545 12.6983 76.9575 12.5628C76.4605 12.4272 75.9146 12.3595 75.3196 12.3595C74.6871 12.3595 74.111 12.431 73.5914 12.5741C73.0718 12.7172 72.6162 12.9092 72.2246 13.1502C71.833 13.3911 71.5055 13.6698 71.2419 13.986C70.9859 14.3023 70.7976 14.6374 70.6771 14.9914H79.7702ZM88.931 12.1787H85.7117V9.67109H88.931V5.52557H92.2745V9.67109H95.4937V12.1787H92.2745V23H88.931V12.1787ZM104.903 5.34484H108.698L117.238 23H113.476L112.065 20.0292H101.752L100.385 23H96.612L104.903 5.34484ZM110.653 17.0811L106.835 9.06112L103.118 17.0811H110.653ZM121.327 7.85248C120.996 7.85248 120.694 7.8073 120.423 7.71693C120.16 7.61904 119.934 7.49102 119.746 7.33288C119.557 7.16721 119.41 6.97895 119.305 6.7681C119.207 6.54971 119.158 6.32003 119.158 6.07906C119.158 5.83055 119.207 5.60087 119.305 5.39002C119.41 5.17164 119.557 4.98338 119.746 4.82524C119.934 4.6671 120.16 4.54285 120.423 4.45248C120.694 4.35458 120.996 4.30564 121.327 4.30564C121.666 4.30564 121.967 4.35458 122.231 4.45248C122.502 4.54285 122.731 4.6671 122.92 4.82524C123.108 4.98338 123.251 5.17164 123.349 5.39002C123.454 5.60087 123.507 5.83055 123.507 6.07906C123.507 6.32003 123.454 6.54971 123.349 6.7681C123.251 6.97895 123.108 7.16721 122.92 7.33288C122.731 7.49102 122.502 7.61904 122.231 7.71693C121.967 7.8073 121.666 7.85248 121.327 7.85248ZM119.655 9.67109H122.999V23H119.655V9.67109Z" fill="white"/>
</mask>
<g mask="url(#mask0_664_221)">
<path d="M-0.152344 16.2704L2.62369 5.39757L17.6605 2.00464H26.2971L37.1699 5.39757L43.8786 3.46977H106.031L111.043 5.39757L119.217 9.56162L124.229 8.48205L122.996 24.6756L6.40218 23.596L-0.152344 16.2704Z" fill="white"/>
</g>
</svg>
