<svg width="174" height="37" viewBox="0 0 174 37" fill="none" xmlns="http://www.w3.org/2000/svg">
<path d="M171.849 14.6619C169.292 12.5109 168.903 12.5047 166.279 14.574C168.43 12.017 168.436 11.6279 166.367 9.00464C168.924 11.1556 169.313 11.1618 171.937 9.09251C169.786 11.6492 169.779 12.0383 171.849 14.6619Z" fill="white"/>
<mask id="mask0_660_142" style="mask-type:alpha" maskUnits="userSpaceOnUse" x="49" y="11" width="123" height="20">
<path d="M49.4346 21.0651C49.4346 19.8075 49.6718 18.6365 50.1462 17.5522C50.6206 16.4602 51.3059 15.5152 52.202 14.7169C53.1057 13.9112 54.2051 13.2786 55.5003 12.8193C56.8031 12.3599 58.2753 12.1302 59.917 12.1302C61.3553 12.1302 62.6731 12.2771 63.8704 12.5708C65.0753 12.8569 66.1936 13.2974 67.2253 13.8923L65.5761 16.6033C65.2673 16.4 64.9096 16.2193 64.503 16.0611C64.1039 15.903 63.6747 15.7712 63.2153 15.6658C62.7635 15.5528 62.2928 15.4662 61.8033 15.406C61.3214 15.3457 60.8432 15.3156 60.3688 15.3156C59.2241 15.3156 58.2038 15.4587 57.3076 15.7448C56.4115 16.0235 55.6547 16.4188 55.0372 16.9309C54.4272 17.4354 53.9604 18.0416 53.6365 18.7495C53.3203 19.4498 53.1621 20.2217 53.1621 21.0651C53.1621 21.9386 53.3278 22.7406 53.6591 23.4711C53.9905 24.2015 54.4687 24.8341 55.0937 25.3688C55.7263 25.8959 56.4944 26.3101 57.398 26.6113C58.3092 26.905 59.3371 27.0518 60.4817 27.0518C61.0013 27.0518 61.5172 27.0142 62.0292 26.9389C62.5413 26.8636 63.0346 26.7619 63.509 26.6339C63.9909 26.4983 64.4541 26.3402 64.8983 26.1595C65.3426 25.9712 65.7568 25.7679 66.1409 25.5495L67.79 28.2605C66.8261 28.878 65.7116 29.3637 64.4465 29.7176C63.1814 30.064 61.8372 30.2372 60.414 30.2372C58.5991 30.2372 57.0064 30.0038 55.6359 29.5369C54.2653 29.0625 53.1207 28.4148 52.202 27.594C51.2833 26.7657 50.5905 25.7942 50.1236 24.6797C49.6642 23.5577 49.4346 22.3528 49.4346 21.0651ZM71.416 11.2605H74.7595V30H71.416V11.2605ZM78.2499 23.3355C78.2499 22.3792 78.4419 21.4831 78.8259 20.6472C79.2175 19.8113 79.771 19.0808 80.4864 18.4558C81.2093 17.8308 82.0791 17.3375 83.0957 16.9761C84.1198 16.6146 85.2682 16.4339 86.5409 16.4339C87.8135 16.4339 88.9582 16.6146 89.9748 16.9761C90.9989 17.3375 91.8687 17.8308 92.5841 18.4558C93.307 19.0808 93.8605 19.8113 94.2445 20.6472C94.6361 21.4831 94.8319 22.3792 94.8319 23.3355C94.8319 24.2919 94.6361 25.188 94.2445 26.0239C93.8605 26.8598 93.307 27.5903 92.5841 28.2153C91.8687 28.8403 90.9989 29.3336 89.9748 29.695C88.9582 30.0565 87.8135 30.2372 86.5409 30.2372C85.2682 30.2372 84.1198 30.0565 83.0957 29.695C82.0791 29.3336 81.2093 28.8403 80.4864 28.2153C79.771 27.5903 79.2175 26.8598 78.8259 26.0239C78.4419 25.188 78.2499 24.2919 78.2499 23.3355ZM81.7628 23.3355C81.7628 23.8702 81.8682 24.3785 82.0791 24.8605C82.2975 25.3349 82.61 25.7566 83.0166 26.1256C83.4308 26.487 83.9316 26.777 84.519 26.9953C85.1139 27.2062 85.7878 27.3116 86.5409 27.3116C87.2939 27.3116 87.9641 27.2062 88.5515 26.9953C89.1464 26.777 89.6472 26.487 90.0538 26.1256C90.468 25.7566 90.7805 25.3349 90.9914 24.8605C91.2098 24.3785 91.319 23.8702 91.319 23.3355C91.319 22.8009 91.2098 22.2926 90.9914 21.8106C90.7805 21.3287 90.468 20.907 90.0538 20.5455C89.6472 20.1765 89.1464 19.8866 88.5515 19.6757C87.9641 19.4574 87.2939 19.3482 86.5409 19.3482C85.7878 19.3482 85.1139 19.4574 84.519 19.6757C83.9316 19.8866 83.4308 20.1765 83.0166 20.5455C82.61 20.907 82.2975 21.3287 82.0791 21.8106C81.8682 22.2926 81.7628 22.8009 81.7628 23.3355ZM98.7402 25.911C99.6439 26.4532 100.638 26.8523 101.722 27.1083C102.807 27.3643 103.917 27.4924 105.055 27.4924C105.823 27.4924 106.463 27.4396 106.975 27.3342C107.487 27.2288 107.897 27.0932 108.206 26.9276C108.515 26.7619 108.733 26.5736 108.861 26.3628C108.989 26.1519 109.053 25.9373 109.053 25.7189C109.053 25.4027 108.914 25.1316 108.635 24.9056C108.364 24.6797 107.912 24.5668 107.28 24.5668C106.986 24.5668 106.67 24.5856 106.331 24.6233C105.992 24.6609 105.634 24.7023 105.258 24.7475C104.889 24.7852 104.501 24.8228 104.094 24.8605C103.695 24.8981 103.289 24.9169 102.874 24.9169C101.971 24.9169 101.199 24.819 100.559 24.6233C99.9263 24.4275 99.4104 24.1601 99.0113 23.8213C98.6122 23.4824 98.3223 23.0833 98.1416 22.6239C97.9608 22.157 97.8705 21.6563 97.8705 21.1216C97.8705 20.4438 98.0286 19.8188 98.3449 19.2465C98.6612 18.6742 99.113 18.1809 99.7004 17.7668C100.288 17.3451 100.996 17.0175 101.824 16.784C102.66 16.5506 103.59 16.4339 104.614 16.4339C105.149 16.4339 105.706 16.4678 106.286 16.5355C106.873 16.5958 107.449 16.6786 108.014 16.784C108.579 16.8895 109.121 17.0137 109.641 17.1568C110.16 17.2924 110.62 17.4392 111.019 17.5973L109.968 20.1953C109.117 19.8791 108.266 19.6306 107.415 19.4498C106.572 19.2616 105.702 19.1674 104.806 19.1674C104.181 19.1674 103.65 19.2164 103.213 19.3143C102.784 19.4046 102.434 19.5289 102.163 19.687C101.892 19.8376 101.692 20.0146 101.564 20.2179C101.444 20.4137 101.383 20.6208 101.383 20.8392C101.383 20.9973 101.414 21.1404 101.474 21.2684C101.542 21.3965 101.647 21.5094 101.79 21.6073C101.941 21.6977 102.133 21.7692 102.366 21.8219C102.607 21.8671 102.901 21.8897 103.247 21.8897C103.563 21.8897 103.899 21.8709 104.253 21.8332C104.606 21.7956 104.975 21.7579 105.36 21.7203C105.744 21.6751 106.139 21.6337 106.546 21.596C106.96 21.5584 107.381 21.5395 107.811 21.5395C108.609 21.5395 109.305 21.6337 109.9 21.8219C110.503 22.0102 111 22.2737 111.391 22.6126C111.783 22.9515 112.077 23.3506 112.272 23.81C112.468 24.2693 112.566 24.7701 112.566 25.3123C112.566 26.0126 112.404 26.664 112.08 27.2664C111.757 27.8689 111.275 28.3922 110.635 28.8365C109.995 29.2733 109.196 29.6159 108.24 29.8645C107.291 30.113 106.192 30.2372 104.942 30.2372C104.173 30.2372 103.432 30.1883 102.716 30.0904C102.001 30 101.319 29.8757 100.672 29.7176C100.024 29.5519 99.4142 29.3599 98.8419 29.1415C98.2771 28.9231 97.7613 28.6897 97.2944 28.4412L98.7402 25.911ZM114.95 23.2904C114.95 22.3867 115.134 21.5245 115.503 20.7036C115.872 19.8753 116.403 19.1448 117.096 18.5123C117.789 17.8797 118.636 17.3752 119.637 16.9987C120.646 16.6221 121.791 16.4339 123.071 16.4339C124.344 16.4339 125.488 16.6259 126.505 17.01C127.529 17.3865 128.395 17.9061 129.103 18.5688C129.818 19.2314 130.364 20.0108 130.741 20.907C131.125 21.8031 131.317 22.7632 131.317 23.7874C131.317 23.9154 131.313 24.0547 131.306 24.2053C131.306 24.3484 131.298 24.4802 131.283 24.6007H118.677C118.82 24.9998 119.05 25.365 119.366 25.6963C119.69 26.0277 120.093 26.3138 120.575 26.5548C121.057 26.7958 121.614 26.9841 122.247 27.1196C122.879 27.2476 123.579 27.3116 124.348 27.3116C125.116 27.3116 125.88 27.2326 126.641 27.0744C127.401 26.9087 128.128 26.7017 128.821 26.4532L129.95 29.006C129.513 29.2093 129.069 29.39 128.617 29.5482C128.173 29.6988 127.706 29.8268 127.217 29.9322C126.735 30.0301 126.226 30.1054 125.692 30.1581C125.165 30.2109 124.607 30.2372 124.02 30.2372C122.521 30.2372 121.207 30.0565 120.078 29.695C118.948 29.3336 118.003 28.8403 117.243 28.2153C116.482 27.5903 115.91 26.856 115.526 26.0126C115.142 25.1692 114.95 24.2618 114.95 23.2904ZM127.77 21.9914C127.65 21.6224 127.461 21.2797 127.205 20.9634C126.957 20.6396 126.644 20.361 126.268 20.1276C125.891 19.8866 125.455 19.6983 124.958 19.5628C124.461 19.4272 123.915 19.3595 123.32 19.3595C122.687 19.3595 122.111 19.431 121.591 19.5741C121.072 19.7172 120.616 19.9092 120.225 20.1502C119.833 20.3911 119.505 20.6698 119.242 20.986C118.986 21.3023 118.798 21.6374 118.677 21.9914H127.77ZM136.931 19.1787H133.712V16.6711H136.931V12.5256H140.274V16.6711H143.494V19.1787H140.274V30H136.931V19.1787ZM152.903 12.3448H156.698L165.238 30H161.476L160.065 27.0292H149.752L148.385 30H144.612L152.903 12.3448ZM158.653 24.0811L154.835 16.0611L151.118 24.0811H158.653ZM169.327 14.8525C168.996 14.8525 168.694 14.8073 168.423 14.7169C168.16 14.619 167.934 14.491 167.746 14.3329C167.557 14.1672 167.41 13.9789 167.305 13.7681C167.207 13.5497 167.158 13.32 167.158 13.0791C167.158 12.8306 167.207 12.6009 167.305 12.39C167.41 12.1716 167.557 11.9834 167.746 11.8252C167.934 11.6671 168.16 11.5428 168.423 11.4525C168.694 11.3546 168.996 11.3056 169.327 11.3056C169.666 11.3056 169.967 11.3546 170.231 11.4525C170.502 11.5428 170.731 11.6671 170.92 11.8252C171.108 11.9834 171.251 12.1716 171.349 12.39C171.454 12.6009 171.507 12.8306 171.507 13.0791C171.507 13.32 171.454 13.5497 171.349 13.7681C171.251 13.9789 171.108 14.1672 170.92 14.3329C170.731 14.491 170.502 14.619 170.231 14.7169C169.967 14.8073 169.666 14.8525 169.327 14.8525ZM167.655 16.6711H170.999V30H167.655V16.6711Z" fill="white"/>
</mask>
<g mask="url(#mask0_660_142)">
<path d="M47.8477 23.2704L50.6237 12.3976L65.6605 9.00464H74.2971L85.1699 12.3976L91.8786 10.4698H154.031L159.043 12.3976L167.217 16.5616L172.229 15.482L170.996 31.6756L54.4022 30.596L47.8477 23.2704Z" fill="white"/>
</g>
<rect x="0.972656" y="0.820312" width="36.5478" height="36.0695" rx="7.46265" fill="url(#paint0_radial_660_142)"/>
<rect x="0.972656" y="0.820312" width="36.5478" height="36.0695" rx="7.46265" fill="url(#paint1_radial_660_142)"/>
<g clip-path="url(#clip0_660_142)">
<g clip-path="url(#clip1_660_142)">
<path d="M11.8829 20.2938C11.861 20.3128 11.8331 20.3275 11.8174 20.3499C11.6351 20.6114 11.4536 20.8738 11.2729 21.137C11.0792 21.42 10.8838 21.7014 10.6953 21.9879C10.5958 22.1389 10.5094 22.2994 10.417 22.4557C10.2983 22.6559 10.1787 22.8552 10.0609 23.0554C10.0051 23.1512 9.95101 23.2488 9.89952 23.3471C9.78173 23.5698 9.6648 23.7942 9.54701 24.0168C9.53828 24.0341 9.52345 24.0479 9.50338 24.0738C9.48593 24.0263 9.47022 23.991 9.45975 23.9538C9.29833 23.4214 9.14476 22.888 9.04179 22.3409C8.96414 21.9275 8.91876 21.5115 8.94407 21.0895C8.9685 20.6735 9.06535 20.2722 9.20147 19.8778C9.43968 19.1857 9.83932 18.5937 10.3271 18.0543C10.9073 17.4131 11.5818 16.884 12.3043 16.4111C12.7258 16.1349 13.142 15.8527 13.5355 15.5386C13.8051 15.3229 14.0669 15.0959 14.292 14.8327C14.3671 14.7455 14.4334 14.6514 14.4735 14.5349C14.4604 14.5444 14.4456 14.5513 14.4351 14.5634C14.0948 14.9423 13.6812 15.2262 13.2371 15.4696C13.0591 15.5671 12.8723 15.6491 12.6891 15.738C12.5835 15.7889 12.4788 15.8415 12.3724 15.8881C12.3226 15.9106 12.2685 15.9218 12.2136 15.939C12.163 15.8596 12.1446 15.7811 12.1298 15.7026C12.0914 15.498 12.0137 15.3065 11.9387 15.114C11.8689 14.9345 11.7904 14.7602 11.6892 14.5971C11.601 14.4555 11.5085 14.3174 11.416 14.1785C11.2564 13.9386 11.0984 13.6978 10.9344 13.4605C10.7756 13.2309 10.684 12.9755 10.6334 12.7062C10.5758 12.399 10.6002 12.0935 10.697 11.7966C10.7703 11.5713 10.8524 11.3487 10.9353 11.126C10.9684 11.038 10.9815 10.9517 10.9571 10.8602C10.8942 10.6263 10.834 10.3916 10.7712 10.1577C10.7529 10.0904 10.7311 10.0248 10.7075 9.94974C10.5147 10.0127 10.3384 10.0887 10.1726 10.1836C9.99551 10.2846 9.83059 10.4037 9.68138 10.5418C9.59238 10.6238 9.51211 10.7152 9.42921 10.8041C9.37686 10.8611 9.32101 10.9103 9.24161 10.9267C9.16744 10.9422 9.12556 10.9198 9.10462 10.8464C9.07408 10.742 9.10985 10.6419 9.15348 10.5556C9.20758 10.4494 9.27739 10.3424 9.36464 10.2621C9.55399 10.0887 9.75555 9.92644 9.9606 9.77023C10.0522 9.70033 10.163 9.65459 10.2651 9.59935C10.355 9.55103 10.4457 9.50442 10.54 9.45437C10.547 9.37325 10.5103 9.29903 10.4929 9.22222C10.4798 9.16353 10.4615 9.10485 10.4457 9.04703C10.417 8.93829 10.4222 8.91585 10.5086 8.85371C10.6386 8.76137 10.7765 8.69233 10.9449 8.69233C11.0688 8.69233 11.1647 8.74066 11.2337 8.83386C11.2939 8.91412 11.3401 9.0056 11.3899 9.09277C11.4213 9.148 11.4405 9.15922 11.4989 9.14196C11.7974 9.05652 12.0958 8.97453 12.3933 8.88564C12.6341 8.81401 12.8584 8.70614 13.0582 8.55338C13.1341 8.4947 13.2057 8.42997 13.272 8.36093C13.4788 8.14604 13.7196 7.99588 14.0206 7.95186C14.0355 7.95014 14.0494 7.94237 14.073 7.9346C14.073 7.90181 14.0747 7.86729 14.073 7.83277C14.0599 7.57559 14.0555 7.31755 14.0285 7.0621C14.011 6.89554 14.0878 6.78248 14.1917 6.67547C14.3086 6.55465 14.4142 6.42692 14.4988 6.28193C14.5843 6.13608 14.58 6.00059 14.4718 5.87804C14.4438 5.84611 14.3976 5.82713 14.3557 5.81073C14.299 5.78829 14.2405 5.76672 14.1803 5.75981C13.9945 5.73651 13.8636 5.8651 13.8767 6.04978C13.8793 6.0843 13.888 6.11969 13.8845 6.15421C13.8775 6.22584 13.833 6.27503 13.7755 6.2828C13.7074 6.29143 13.6507 6.2664 13.6228 6.20599C13.6027 6.16198 13.5887 6.10933 13.5922 6.06187C13.6088 5.83317 13.7449 5.68559 13.9439 5.58893C14.2754 5.42841 14.6323 5.60878 14.778 5.85819C14.8487 5.97815 14.8426 6.11192 14.8025 6.24051C14.7344 6.4554 14.6271 6.65044 14.4569 6.80319C14.3435 6.90503 14.292 7.00945 14.3147 7.1717C14.3452 7.38918 14.333 7.6127 14.34 7.83363C14.34 7.8578 14.3452 7.88282 14.3479 7.90871C14.4691 7.92597 14.5843 7.93978 14.6986 7.95877C14.7379 7.96567 14.7789 7.97689 14.8129 7.9976C14.9639 8.08995 15.1253 8.16503 15.264 8.27636C15.3749 8.36525 15.477 8.46795 15.5965 8.5413C15.7518 8.63623 15.8853 8.76655 16.0642 8.82351C16.0834 8.82955 16.1017 8.84077 16.1192 8.85026C16.3652 8.98662 16.6296 9.07637 16.8949 9.16612C16.976 9.19374 17.0554 9.22308 17.1479 9.25501C17.1924 9.14973 17.2395 9.05479 17.2727 8.95641C17.3085 8.85199 17.3704 8.79589 17.4847 8.79589C17.592 8.79589 17.6994 8.7864 17.8058 8.78899C17.866 8.79071 17.9289 8.80107 17.9847 8.82092C18.0754 8.85371 18.1095 8.91585 18.0938 9.01078C18.0763 9.1152 18.0528 9.21877 18.0327 9.32233C18.0231 9.37066 18.0144 9.41985 18.0056 9.46904C18.1287 9.51392 18.2412 9.5562 18.3547 9.5959C18.5719 9.67271 18.7622 9.79353 18.9515 9.92471C19.1461 10.0593 19.2717 10.2423 19.4035 10.4261C19.4803 10.5331 19.4716 10.6462 19.4462 10.7601C19.4236 10.8645 19.3241 10.8913 19.2517 10.8119C19.1592 10.7101 19.0693 10.6065 18.9576 10.5262C18.7848 10.4028 18.6173 10.2708 18.4192 10.1862C18.2604 10.1189 18.1016 10.0524 17.9428 9.98598C17.9245 9.97822 17.9036 9.97822 17.8756 9.97304C17.8076 10.1456 17.7797 10.3226 17.7622 10.5038C17.7413 10.7256 17.7613 10.9465 17.7631 11.1683C17.7657 11.4712 17.7666 11.7741 17.736 12.0753C17.729 12.1452 17.7177 12.216 17.7011 12.2842C17.6409 12.5396 17.5886 12.7968 17.5144 13.048C17.4612 13.2266 17.3757 13.3949 17.3093 13.5692C17.2055 13.8428 17.1025 14.1164 17.0432 14.4037C17.024 14.497 17.0127 14.5945 17.0188 14.6894C17.0345 14.9509 17.0633 15.2124 17.0825 15.4739C17.0912 15.5999 17.086 15.7259 17.0938 15.8519C17.1191 16.2799 17.1436 16.7089 17.175 17.1369C17.1942 17.3984 17.2203 17.659 17.2509 17.9188C17.2805 18.1691 17.3137 18.4193 17.3547 18.6679C17.4027 18.9613 17.4681 19.2521 17.5126 19.5456C17.5475 19.7803 17.606 20.009 17.654 20.2403C17.6915 20.4233 17.7413 20.6036 17.7866 20.784C17.832 20.9652 17.8783 21.1465 17.9254 21.3268C17.9716 21.5029 18.0144 21.6789 18.0667 21.8524C18.1409 22.0984 18.2238 22.3417 18.3014 22.5868C18.3163 22.6343 18.3206 22.6861 18.3355 22.7335C18.3808 22.8716 18.4288 23.0097 18.4768 23.1469C18.5554 23.3704 18.6321 23.5948 18.7159 23.8175C18.791 24.016 18.873 24.211 18.9541 24.4078C19.0693 24.6883 19.1845 24.9687 19.3031 25.2475C19.366 25.3968 19.434 25.5435 19.5012 25.6902C19.5998 25.906 19.6967 26.1226 19.7996 26.3366C19.8913 26.5273 19.989 26.7163 20.0832 26.9053C20.1687 27.0771 20.2508 27.2506 20.3406 27.4197C20.4061 27.544 20.4811 27.6639 20.5518 27.7856C20.6303 27.9211 20.7088 28.0566 20.7874 28.1921C20.8232 28.2534 20.8563 28.3155 20.8921 28.3768C20.982 28.5287 21.091 28.6693 21.1547 28.8376C21.1809 28.9067 21.2376 28.9645 21.2778 29.0284C21.3179 29.0922 21.3545 29.1578 21.3929 29.2234C21.4008 29.2363 21.4034 29.2519 21.4121 29.2648C21.523 29.4279 21.6338 29.591 21.7463 29.7533C21.824 29.8655 21.92 29.9673 21.9793 30.0881C22.0456 30.2228 22.1468 30.3281 22.2315 30.4471C22.3519 30.6163 22.4784 30.7811 22.6075 30.9442C22.7297 31.0987 22.8588 31.2472 22.9845 31.3991C23.091 31.5276 23.1983 31.6562 23.3039 31.7857C23.4094 31.9151 23.5115 32.0463 23.6337 32.1628C23.7244 32.25 23.803 32.3501 23.8867 32.4442C23.9068 32.4666 23.9251 32.4951 23.9513 32.5089C24.0918 32.584 24.1703 32.7169 24.2724 32.8291C24.2995 32.8593 24.3248 32.8929 24.357 32.9162C24.5106 33.0276 24.6232 33.1812 24.7628 33.3054C24.9024 33.4297 25.0176 33.5799 25.1711 33.6904C25.2523 33.749 25.3186 33.8267 25.3919 33.8966C25.3989 33.9035 25.4059 33.913 25.4146 33.9173C25.61 34.0148 25.7322 34.1995 25.9041 34.3255C25.9207 34.3376 25.9329 34.354 25.9495 34.3661C26.124 34.4886 26.2985 34.6103 26.473 34.732C26.4939 34.7467 26.5175 34.7579 26.535 34.776C26.6702 34.9167 26.8482 34.9995 27 35.1169C27.1859 35.2602 27.3953 35.3663 27.5864 35.5018C27.7435 35.6131 27.9084 35.7141 28.0759 35.8082C28.2879 35.9273 28.5087 36.0326 28.7225 36.1491C28.8473 36.2164 28.9677 36.2932 29.0898 36.3657C29.1116 36.3786 29.1308 36.4002 29.1535 36.4063C29.3254 36.4485 29.465 36.5547 29.6203 36.6289C29.6884 36.6617 29.7608 36.6859 29.8298 36.7178C30.0095 36.8006 30.1875 36.8878 30.369 36.9672C30.513 37.0302 30.6561 37.0975 30.8131 37.1251C30.8533 37.132 30.8978 37.1407 30.9283 37.164C31.013 37.2296 31.1168 37.2373 31.2136 37.2641C31.3358 37.2977 31.4606 37.3245 31.5653 37.4039C31.5889 37.4212 31.6203 37.4315 31.6499 37.4376C31.7738 37.466 31.8986 37.4902 32.0216 37.5204C32.1351 37.548 32.2529 37.5705 32.3593 37.6162C32.4562 37.6576 32.5565 37.6619 32.6551 37.687C32.759 37.7129 32.8628 37.7353 32.9666 37.7595C33.0705 37.7836 33.1734 37.8086 33.2903 37.8363C33.1734 37.8924 33.0617 37.9467 32.9501 38.0002C32.5731 38.1797 32.1822 38.323 31.7887 38.4628C31.3122 38.632 30.8245 38.7545 30.328 38.8477C30.1291 38.8848 29.9249 38.8978 29.7233 38.9228C29.6727 38.9288 29.623 38.9401 29.5724 38.9444C29.4519 38.9547 29.3307 38.9642 29.2102 38.9711C29.0837 38.978 28.9563 38.9892 28.8298 38.9858C28.657 38.9806 28.4851 38.9634 28.3124 38.9513C28.2923 38.9496 28.2714 38.9452 28.2513 38.9452C27.8613 38.9452 27.4799 38.8762 27.0995 38.8002C26.8561 38.7511 26.6152 38.6889 26.3744 38.6294C26.1772 38.5802 25.9879 38.5094 25.7985 38.4369C25.4573 38.3057 25.1188 38.1702 24.7942 38.0011C24.6144 37.907 24.4234 37.8337 24.2427 37.7413C24.0761 37.6568 23.9146 37.561 23.7524 37.4686C23.6241 37.3961 23.5063 37.3046 23.3789 37.2365C23.2436 37.164 23.132 37.0596 22.995 36.9931C22.9601 36.9758 22.9348 36.9396 22.9025 36.9154C22.8545 36.8792 22.803 36.8473 22.755 36.811C22.6468 36.729 22.529 36.6617 22.4365 36.5581C22.3711 36.4848 22.2707 36.4416 22.2009 36.3709C22.1303 36.2992 22.07 36.2181 21.9697 36.1836C21.9575 36.1646 21.9453 36.1456 21.9331 36.1266C21.9269 36.1327 21.9208 36.1387 21.9139 36.1448C21.9322 36.1577 21.9514 36.1698 21.9697 36.1827C22.0386 36.2751 22.1023 36.3717 22.1774 36.4589C22.2864 36.5858 22.4016 36.7074 22.5168 36.8274C22.6538 36.9698 22.7908 37.1105 22.933 37.2477C23.0604 37.3702 23.1904 37.4902 23.3265 37.6032C23.5168 37.762 23.714 37.9148 23.9077 38.0693C24.0464 38.1797 24.1965 38.2764 24.3344 38.3869C24.5333 38.5465 24.7549 38.6691 24.9661 38.8097C25.2287 38.9849 25.5027 39.1394 25.7837 39.2827C26.0236 39.4052 26.2645 39.5269 26.5114 39.6365C26.8316 39.7789 27.1545 39.9153 27.4799 40.0438C27.9005 40.2104 28.3246 40.3675 28.7617 40.4848C29.1204 40.5806 29.4842 40.6609 29.8551 40.7006C30.0174 40.7179 30.177 40.7532 30.3393 40.7705C30.6325 40.8007 30.9266 40.8232 31.2302 40.8499C31.2136 40.8689 31.1988 40.8939 31.177 40.9095C31.0112 41.0277 30.8393 41.1347 30.6552 41.2244C30.5505 41.2754 30.4519 41.3392 30.3489 41.3945C30.246 41.4497 30.1421 41.5023 30.0374 41.5558C29.9065 41.6232 29.7704 41.6784 29.6448 41.7578C29.5645 41.8087 29.4676 41.8346 29.3778 41.87C29.1221 41.9701 28.8708 42.0806 28.6099 42.1669C28.3883 42.2402 28.1571 42.2842 27.9302 42.3412C27.8953 42.3498 27.8595 42.3541 27.8255 42.3645C27.5943 42.4327 27.3569 42.4586 27.117 42.4715C27.0611 42.4741 27.0061 42.4896 26.9503 42.4974C26.8744 42.5078 26.7985 42.5147 26.7226 42.5241C26.6728 42.5302 26.6231 42.5388 26.5734 42.5457C26.548 42.5492 26.5227 42.5544 26.4983 42.5544C26.3604 42.5552 26.2235 42.5587 26.0856 42.5544C25.9329 42.5509 25.7802 42.5405 25.6284 42.5336C25.6135 42.5336 25.5978 42.5285 25.583 42.5293C25.3666 42.5518 25.1572 42.4948 24.9451 42.4732C24.9303 42.4715 24.9146 42.4672 24.8998 42.4681C24.6938 42.4758 24.4923 42.4344 24.2942 42.3956C24.0665 42.3515 23.8326 42.3144 23.618 42.2117C23.5272 42.1686 23.4278 42.1453 23.3335 42.109C23.1163 42.0236 22.8981 41.9382 22.6826 41.8475C22.5281 41.7828 22.3746 41.7138 22.2236 41.6421C21.9619 41.5179 21.7158 41.366 21.4636 41.2236C21.2908 41.1261 21.1259 41.0191 20.9645 40.9034C20.7839 40.774 20.5884 40.6635 20.4113 40.5306C20.0876 40.2881 19.7639 40.0456 19.4628 39.7737C19.2482 39.5804 19.0484 39.3742 18.8477 39.1679C18.6042 38.9168 18.3747 38.6544 18.1514 38.3869C17.9891 38.1927 17.832 37.9942 17.6811 37.7905C17.5161 37.567 17.3617 37.3357 17.202 37.1087C17.1942 37.0975 17.1802 37.0889 17.1558 37.0673C17.168 37.1165 17.1715 37.151 17.1837 37.1821C17.2805 37.4255 17.3739 37.6697 17.4786 37.9096C17.565 38.109 17.6645 38.3023 17.757 38.4991C17.9245 38.8555 18.1173 39.1972 18.3163 39.5373C18.4541 39.7729 18.6016 40.0016 18.7473 40.232C18.8389 40.377 18.9279 40.5228 19.037 40.6566C19.1644 40.8137 19.2726 40.9854 19.3974 41.1433C19.5606 41.3496 19.7263 41.555 19.9035 41.75C20.1766 42.0495 20.4584 42.3421 20.742 42.6329C20.8982 42.7925 21.0657 42.941 21.2272 43.0946C21.2516 43.1179 21.2743 43.1438 21.3153 43.1869C21.2673 43.1869 21.2437 43.1887 21.221 43.1869C20.5902 43.1377 19.9584 43.0911 19.3398 42.9436C18.6636 42.7822 18.0065 42.5656 17.3748 42.2739C16.8739 42.0426 16.3923 41.7785 15.9394 41.4644C15.5075 41.1649 15.1096 40.8249 14.7327 40.4615C14.3182 40.062 13.9334 39.6374 13.5966 39.1722C13.251 38.6941 12.957 38.1866 12.7022 37.6559C12.4457 37.1217 12.2249 36.5728 12.0434 36.0093C11.8331 35.3594 11.6656 34.6984 11.5539 34.0252C11.5242 33.8466 11.5164 33.6636 11.5033 33.4824C11.4841 33.2261 11.4623 32.9697 11.4544 32.7134C11.4448 32.4217 11.4483 32.1292 11.4475 31.8366C11.4475 31.7253 11.4475 31.6148 11.4475 31.4828C11.3881 31.5492 11.3811 31.6165 11.3689 31.6787C11.3244 31.9065 11.2825 32.1343 11.2459 32.3639C11.1892 32.7272 11.1368 33.0914 11.0845 33.4556C11.0531 33.6748 11.0216 33.894 10.9928 34.1141C10.978 34.2289 10.9693 34.3445 10.9597 34.4602C10.9213 34.9331 10.8855 35.406 10.882 35.8798C10.8794 36.2423 10.8873 36.6047 10.8951 36.9672C10.9012 37.2399 10.9143 37.5118 10.9239 37.7845C10.9257 37.8294 10.9239 37.8742 10.9239 37.92C10.8393 37.9416 10.8026 37.8915 10.773 37.8371C10.7241 37.7482 10.6813 37.6568 10.6342 37.567C10.5225 37.3521 10.4091 37.1381 10.2992 36.9223C10.2355 36.7963 10.1761 36.6686 10.115 36.5409C10.0496 36.4045 9.98416 36.269 9.91959 36.1327C9.9065 36.1051 9.89342 36.0774 9.88207 36.0498C9.72763 35.6667 9.57318 35.2826 9.45539 34.8856C9.30007 34.3618 9.17704 33.831 9.08804 33.2925C9.0034 32.7842 8.94058 32.2724 8.91702 31.7572C8.90044 31.3991 8.90044 31.04 8.9048 30.681C8.91004 30.297 8.92051 29.9129 8.94319 29.5298C8.99817 28.6115 9.10811 27.6993 9.31316 26.8001C9.50862 25.9474 9.75468 25.1086 10.0374 24.2809C10.1412 23.9754 10.2538 23.6734 10.3794 23.3748C10.5348 23.008 10.6831 22.6386 10.862 22.2822C10.9859 22.0345 11.0993 21.7808 11.2197 21.5314C11.2703 21.4269 11.327 21.326 11.3829 21.2241C11.5391 20.9419 11.6857 20.6537 11.8576 20.3792C11.8715 20.3559 11.8698 20.3231 11.875 20.2947C11.9169 20.2783 11.937 20.2481 11.9361 20.2041C11.9448 20.1954 11.9544 20.1868 11.9631 20.1782C11.9579 20.1738 11.9527 20.1695 11.9474 20.1661C11.9448 20.1799 11.9422 20.1937 11.9396 20.2075C11.8986 20.2239 11.8794 20.255 11.8776 20.2981L11.8829 20.2938ZM11.608 9.66581C11.6499 9.78835 11.6857 9.89796 11.7241 10.0076C11.7878 10.1888 11.8532 10.3692 11.916 10.5504C11.9396 10.6194 11.9727 10.6773 12.046 10.7075C12.1534 10.7523 12.2572 10.8067 12.3654 10.8507C12.5678 10.9327 12.7694 11.0156 12.9753 11.0872C13.1097 11.1338 13.2502 11.1614 13.3889 11.1968C13.4631 11.2158 13.5364 11.2374 13.6114 11.2477C13.7676 11.2701 13.9247 11.2891 14.0817 11.3047C14.2388 11.3202 14.3967 11.3444 14.5529 11.3357C14.7553 11.3245 14.9569 11.2822 15.1593 11.2589C15.5738 11.2115 15.9665 11.0924 16.3417 10.9146C16.5493 10.8162 16.7108 10.666 16.8146 10.4589C16.9176 10.2535 16.9708 10.0335 17.0284 9.81424C17.0354 9.78663 17.0336 9.75729 17.0371 9.72018C16.9725 9.70119 16.9149 9.68307 16.8565 9.66753C16.7727 9.64596 16.6855 9.63388 16.6043 9.60626C16.2343 9.48112 15.8539 9.38533 15.4944 9.2274C15.2387 9.1152 14.9744 9.02286 14.7126 8.92534C14.6367 8.89686 14.5573 8.8727 14.477 8.86407C14.3566 8.85112 14.2336 8.8494 14.1123 8.85285C14.0529 8.85457 13.9884 8.86752 13.9369 8.89514C13.7615 8.98748 13.5896 9.08327 13.3941 9.13505C13.2135 9.18252 13.0399 9.25933 12.861 9.31542C12.7013 9.36548 12.5373 9.40431 12.3759 9.44919C12.1263 9.51909 11.8776 9.58986 11.6097 9.66581H11.608ZM12.0478 20.0565L12.0548 20.0444L12.0452 20.0427L12.0478 20.0565Z" fill="white"/>
</g>
<g filter="url(#filter0_d_660_142)">
<path d="M20.4584 11.3081C21.9574 12.0597 22.0204 12.2423 21.2864 14.3052C21.2832 14.3142 21.2991 14.3208 21.3032 14.312C22.2192 12.3232 22.3918 12.2365 23.9894 12.7459C23.9999 12.7492 24.0049 12.7372 23.995 12.7322C22.496 11.9805 22.433 11.7979 23.167 9.73503C23.1702 9.72607 23.1543 9.7195 23.1502 9.72823C22.2342 11.7171 22.0616 11.8037 20.464 11.2942C20.4535 11.2911 20.4487 11.3031 20.4584 11.3081Z" fill="url(#paint2_linear_660_142)"/>
</g>
<g filter="url(#filter1_d_660_142)">
<path d="M28.9074 30.4951C28.3987 29.3187 28.2662 29.2499 27.0113 29.5103C28.1877 29.0016 28.2565 28.8691 27.9961 27.6143C28.5047 28.7906 28.6373 28.8594 29.8921 28.599C28.7158 29.1076 28.647 29.2401 28.9074 30.4951Z" fill="url(#paint3_linear_660_142)"/>
</g>
<g filter="url(#filter2_d_660_142)">
<path d="M7.28886 28.3074C6.29529 27.4979 6.14591 27.4979 5.15234 28.3074C5.96183 27.3137 5.96183 27.1645 5.15234 26.1709C6.14591 26.9804 6.29529 26.9804 7.28886 26.1709C6.47937 27.1645 6.47937 27.3137 7.28886 28.3074Z" fill="url(#paint4_linear_660_142)"/>
</g>
<g filter="url(#filter3_d_660_142)">
<rect x="27.1523" y="4.07349" width="6.21888" height="3.34862" rx="1.67431" fill="url(#paint5_linear_660_142)" shape-rendering="crispEdges"/>
<rect x="27.1045" y="4.02565" width="6.31455" height="3.4443" rx="1.72215" stroke="white" stroke-opacity="0.76" stroke-width="0.095675" shape-rendering="crispEdges"/>
</g>
<path d="M29.6247 5.25745H29.9235L30.596 6.64771H30.2998L30.1886 6.41377H29.3765L29.2689 6.64771H28.9718L29.6247 5.25745ZM30.0774 6.18162L29.7768 5.55009L29.4841 6.18162H30.0774ZM30.7766 5.25745H31.0603V6.64771H30.7766V5.25745Z" fill="#BD5BBB"/>
</g>
<defs>
<filter id="filter0_d_660_142" x="19.1041" y="8.3751" width="6.24491" height="7.29008" filterUnits="userSpaceOnUse" color-interpolation-filters="sRGB">
<feFlood flood-opacity="0" result="BackgroundImageFix"/>
<feColorMatrix in="SourceAlpha" type="matrix" values="0 0 0 0 0 0 0 0 0 0 0 0 0 0 0 0 0 0 127 0" result="hardAlpha"/>
<feOffset/>
<feGaussianBlur stdDeviation="0.674509"/>
<feComposite in2="hardAlpha" operator="out"/>
<feColorMatrix type="matrix" values="0 0 0 0 1 0 0 0 0 1 0 0 0 0 1 0 0 0 0.6 0"/>
<feBlend mode="normal" in2="BackgroundImageFix" result="effect1_dropShadow_660_142"/>
<feBlend mode="normal" in="SourceGraphic" in2="effect1_dropShadow_660_142" result="shape"/>
</filter>
<filter id="filter1_d_660_142" x="25.6627" y="26.2652" width="5.57694" height="5.5789" filterUnits="userSpaceOnUse" color-interpolation-filters="sRGB">
<feFlood flood-opacity="0" result="BackgroundImageFix"/>
<feColorMatrix in="SourceAlpha" type="matrix" values="0 0 0 0 0 0 0 0 0 0 0 0 0 0 0 0 0 0 127 0" result="hardAlpha"/>
<feOffset/>
<feGaussianBlur stdDeviation="0.674509"/>
<feComposite in2="hardAlpha" operator="out"/>
<feColorMatrix type="matrix" values="0 0 0 0 1 0 0 0 0 1 0 0 0 0 1 0 0 0 0.6 0"/>
<feBlend mode="normal" in2="BackgroundImageFix" result="effect1_dropShadow_660_142"/>
<feBlend mode="normal" in="SourceGraphic" in2="effect1_dropShadow_660_142" result="shape"/>
</filter>
<filter id="filter2_d_660_142" x="3.80333" y="24.8219" width="4.83475" height="4.83451" filterUnits="userSpaceOnUse" color-interpolation-filters="sRGB">
<feFlood flood-opacity="0" result="BackgroundImageFix"/>
<feColorMatrix in="SourceAlpha" type="matrix" values="0 0 0 0 0 0 0 0 0 0 0 0 0 0 0 0 0 0 127 0" result="hardAlpha"/>
<feOffset/>
<feGaussianBlur stdDeviation="0.674509"/>
<feComposite in2="hardAlpha" operator="out"/>
<feColorMatrix type="matrix" values="0 0 0 0 1 0 0 0 0 1 0 0 0 0 1 0 0 0 0.6 0"/>
<feBlend mode="normal" in2="BackgroundImageFix" result="effect1_dropShadow_660_142"/>
<feBlend mode="normal" in="SourceGraphic" in2="effect1_dropShadow_660_142" result="shape"/>
</filter>
<filter id="filter3_d_660_142" x="26.5037" y="3.42287" width="7.51999" height="4.64987" filterUnits="userSpaceOnUse" color-interpolation-filters="sRGB">
<feFlood flood-opacity="0" result="BackgroundImageFix"/>
<feColorMatrix in="SourceAlpha" type="matrix" values="0 0 0 0 0 0 0 0 0 0 0 0 0 0 0 0 0 0 127 0" result="hardAlpha"/>
<feOffset/>
<feGaussianBlur stdDeviation="0.277458"/>
<feComposite in2="hardAlpha" operator="out"/>
<feColorMatrix type="matrix" values="0 0 0 0 0.336768 0 0 0 0 0.336768 0 0 0 0 0.336768 0 0 0 0.15 0"/>
<feBlend mode="normal" in2="BackgroundImageFix" result="effect1_dropShadow_660_142"/>
<feBlend mode="normal" in="SourceGraphic" in2="effect1_dropShadow_660_142" result="shape"/>
</filter>
<radialGradient id="paint0_radial_660_142" cx="0" cy="0" r="1" gradientUnits="userSpaceOnUse" gradientTransform="translate(16.9504 18.8072) rotate(22.3996) scale(22.9732 23.2779)">
<stop stop-color="#F6666F"/>
<stop offset="1" stop-color="#7736F4"/>
</radialGradient>
<radialGradient id="paint1_radial_660_142" cx="0" cy="0" r="1" gradientUnits="userSpaceOnUse" gradientTransform="translate(33.2151 32.0582) rotate(-136.049) scale(38.8052 39.3198)">
<stop stop-color="#4900A6"/>
<stop offset="0.200165" stop-color="#6F0CAF" stop-opacity="0.81209"/>
<stop offset="0.49" stop-color="#A61DBD" stop-opacity="0.54"/>
<stop offset="1" stop-color="#FFB89A"/>
</radialGradient>
<linearGradient id="paint2_linear_660_142" x1="22.2267" y1="9.72412" x2="22.6081" y2="21.5199" gradientUnits="userSpaceOnUse">
<stop stop-color="#FFE1F7"/>
<stop offset="1" stop-color="#C643EB"/>
</linearGradient>
<linearGradient id="paint3_linear_660_142" x1="28.9441" y1="28.1066" x2="26.5351" y2="33.0424" gradientUnits="userSpaceOnUse">
<stop stop-color="#FFE1F7"/>
<stop offset="1" stop-color="#C643EB"/>
</linearGradient>
<linearGradient id="paint4_linear_660_142" x1="6.2206" y1="26.1709" x2="6.35774" y2="31.6614" gradientUnits="userSpaceOnUse">
<stop stop-color="#FFE1F7"/>
<stop offset="1" stop-color="#C643EB"/>
</linearGradient>
<linearGradient id="paint5_linear_660_142" x1="33.3712" y1="5.7478" x2="27.1523" y2="5.7478" gradientUnits="userSpaceOnUse">
<stop stop-color="#FCD6FF"/>
<stop offset="1" stop-color="white"/>
</linearGradient>
<clipPath id="clip0_660_142">
<rect x="0.972656" y="0.820312" width="36.5478" height="36.0695" rx="7.17563" fill="white"/>
</clipPath>
<clipPath id="clip1_660_142">
<rect width="24.3856" height="37.6558" fill="white" transform="translate(8.90234 5.52832)"/>
</clipPath>
</defs>
</svg>
