<svg width="146" height="59" viewBox="0 0 146 59" fill="none" xmlns="http://www.w3.org/2000/svg">
<g filter="url(#filter0_d_753_145)">
<path d="M131.849 33.6619C129.292 31.5109 128.903 31.5047 126.279 33.574C128.43 31.017 128.436 30.6279 126.367 28.0046C128.924 30.1556 129.313 30.1618 131.937 28.0925C129.786 30.6492 129.779 31.0383 131.849 33.6619Z" fill="white"/>
<mask id="mask0_753_145" style="mask-type:alpha" maskUnits="userSpaceOnUse" x="9" y="30" width="123" height="20">
<path d="M9.43455 40.0651C9.43455 38.8075 9.67176 37.6365 10.1462 36.5522C10.6206 35.4602 11.3059 34.5152 12.202 33.7169C13.1057 32.9112 14.2051 32.2786 15.5003 31.8193C16.8031 31.3599 18.2753 31.1302 19.917 31.1302C21.3553 31.1302 22.6731 31.2771 23.8704 31.5708C25.0753 31.8569 26.1936 32.2974 27.2253 32.8923L25.5761 35.6033C25.2673 35.4 24.9096 35.2193 24.503 35.0611C24.1039 34.903 23.6747 34.7712 23.2153 34.6658C22.7635 34.5528 22.2928 34.4662 21.8033 34.406C21.3214 34.3457 20.8432 34.3156 20.3688 34.3156C19.2241 34.3156 18.2038 34.4587 17.3076 34.7448C16.4115 35.0235 15.6547 35.4188 15.0372 35.9309C14.4272 36.4354 13.9604 37.0416 13.6365 37.7495C13.3203 38.4498 13.1621 39.2217 13.1621 40.0651C13.1621 40.9386 13.3278 41.7406 13.6591 42.4711C13.9905 43.2015 14.4687 43.8341 15.0937 44.3688C15.7263 44.8959 16.4944 45.3101 17.398 45.6113C18.3092 45.905 19.3371 46.0518 20.4817 46.0518C21.0013 46.0518 21.5172 46.0142 22.0292 45.9389C22.5413 45.8636 23.0346 45.7619 23.509 45.6339C23.9909 45.4983 24.4541 45.3402 24.8983 45.1595C25.3426 44.9712 25.7568 44.7679 26.1409 44.5495L27.79 47.2605C26.8261 47.878 25.7116 48.3637 24.4465 48.7176C23.1814 49.064 21.8372 49.2372 20.414 49.2372C18.5991 49.2372 17.0064 49.0038 15.6359 48.5369C14.2653 48.0625 13.1207 47.4148 12.202 46.594C11.2833 45.7657 10.5905 44.7942 10.1236 43.6797C9.66423 42.5577 9.43455 41.3528 9.43455 40.0651ZM31.416 30.2605H34.7595V49H31.416V30.2605ZM38.2499 42.3355C38.2499 41.3792 38.4419 40.4831 38.8259 39.6472C39.2175 38.8113 39.771 38.0808 40.4864 37.4558C41.2093 36.8308 42.0791 36.3375 43.0957 35.9761C44.1198 35.6146 45.2682 35.4339 46.5409 35.4339C47.8135 35.4339 48.9582 35.6146 49.9748 35.9761C50.9989 36.3375 51.8687 36.8308 52.5841 37.4558C53.307 38.0808 53.8605 38.8113 54.2445 39.6472C54.6361 40.4831 54.8319 41.3792 54.8319 42.3355C54.8319 43.2919 54.6361 44.188 54.2445 45.0239C53.8605 45.8598 53.307 46.5903 52.5841 47.2153C51.8687 47.8403 50.9989 48.3336 49.9748 48.695C48.9582 49.0565 47.8135 49.2372 46.5409 49.2372C45.2682 49.2372 44.1198 49.0565 43.0957 48.695C42.0791 48.3336 41.2093 47.8403 40.4864 47.2153C39.771 46.5903 39.2175 45.8598 38.8259 45.0239C38.4419 44.188 38.2499 43.2919 38.2499 42.3355ZM41.7628 42.3355C41.7628 42.8702 41.8682 43.3785 42.0791 43.8605C42.2975 44.3349 42.61 44.7566 43.0166 45.1256C43.4308 45.487 43.9316 45.777 44.519 45.9953C45.1139 46.2062 45.7878 46.3116 46.5409 46.3116C47.2939 46.3116 47.9641 46.2062 48.5515 45.9953C49.1464 45.777 49.6472 45.487 50.0538 45.1256C50.468 44.7566 50.7805 44.3349 50.9914 43.8605C51.2098 43.3785 51.319 42.8702 51.319 42.3355C51.319 41.8009 51.2098 41.2926 50.9914 40.8106C50.7805 40.3287 50.468 39.907 50.0538 39.5455C49.6472 39.1765 49.1464 38.8866 48.5515 38.6757C47.9641 38.4574 47.2939 38.3482 46.5409 38.3482C45.7878 38.3482 45.1139 38.4574 44.519 38.6757C43.9316 38.8866 43.4308 39.1765 43.0166 39.5455C42.61 39.907 42.2975 40.3287 42.0791 40.8106C41.8682 41.2926 41.7628 41.8009 41.7628 42.3355ZM58.7402 44.911C59.6439 45.4532 60.6379 45.8523 61.7223 46.1083C62.8067 46.3643 63.9174 46.4924 65.0545 46.4924C65.8226 46.4924 66.4627 46.4396 66.9748 46.3342C67.4869 46.2288 67.8973 46.0932 68.206 45.9276C68.5148 45.7619 68.7332 45.5736 68.8612 45.3628C68.9892 45.1519 69.0532 44.9373 69.0532 44.7189C69.0532 44.4027 68.9139 44.1316 68.6353 43.9056C68.3642 43.6797 67.9123 43.5668 67.2798 43.5668C66.9861 43.5668 66.6698 43.5856 66.3309 43.6233C65.9921 43.6609 65.6344 43.7023 65.2578 43.7475C64.8889 43.7852 64.501 43.8228 64.0944 43.8605C63.6953 43.8981 63.2886 43.9169 62.8745 43.9169C61.9708 43.9169 61.1989 43.819 60.5588 43.6233C59.9263 43.4275 59.4104 43.1601 59.0113 42.8213C58.6122 42.4824 58.3223 42.0833 58.1416 41.6239C57.9608 41.157 57.8705 40.6563 57.8705 40.1216C57.8705 39.4438 58.0286 38.8188 58.3449 38.2465C58.6612 37.6742 59.113 37.1809 59.7004 36.7668C60.2877 36.3451 60.9956 36.0175 61.824 35.784C62.6598 35.5506 63.5898 35.4339 64.614 35.4339C65.1487 35.4339 65.7059 35.4678 66.2858 35.5355C66.8731 35.5958 67.4492 35.6786 68.014 35.784C68.5788 35.8895 69.121 36.0137 69.6406 36.1568C70.1602 36.2924 70.6195 36.4392 71.0186 36.5973L69.9681 39.1953C69.1172 38.8791 68.2663 38.6306 67.4153 38.4498C66.5719 38.2616 65.7021 38.1674 64.806 38.1674C64.181 38.1674 63.6501 38.2164 63.2133 38.3143C62.7841 38.4046 62.4339 38.5289 62.1628 38.687C61.8917 38.8376 61.6922 39.0146 61.5642 39.2179C61.4437 39.4137 61.3834 39.6208 61.3834 39.8392C61.3834 39.9973 61.4135 40.1404 61.4738 40.2684C61.5416 40.3965 61.647 40.5094 61.7901 40.6073C61.9407 40.6977 62.1327 40.7692 62.3661 40.8219C62.6071 40.8671 62.9008 40.8897 63.2472 40.8897C63.5635 40.8897 63.8986 40.8709 64.2525 40.8332C64.6065 40.7956 64.9755 40.7579 65.3595 40.7203C65.7436 40.6751 66.1389 40.6337 66.5456 40.596C66.9597 40.5584 67.3814 40.5395 67.8107 40.5395C68.6089 40.5395 69.3055 40.6337 69.9004 40.8219C70.5028 41.0102 70.9998 41.2737 71.3914 41.6126C71.783 41.9515 72.0767 42.3506 72.2725 42.81C72.4683 43.2693 72.5662 43.7701 72.5662 44.3123C72.5662 45.0126 72.4043 45.664 72.0804 46.2664C71.7566 46.8689 71.2747 47.3922 70.6346 47.8365C69.9945 48.2733 69.1963 48.6159 68.2399 48.8645C67.2911 49.113 66.1916 49.2372 64.9416 49.2372C64.1735 49.2372 63.4317 49.1883 62.7163 49.0904C62.0009 49 61.3194 48.8757 60.6718 48.7176C60.0242 48.5519 59.4142 48.3599 58.8419 48.1415C58.2771 47.9231 57.7613 47.6897 57.2944 47.4412L58.7402 44.911ZM74.9495 42.2904C74.9495 41.3867 75.134 40.5245 75.503 39.7036C75.872 38.8753 76.4029 38.1448 77.0957 37.5123C77.7885 36.8797 78.6357 36.3752 79.6373 35.9987C80.6463 35.6221 81.791 35.4339 83.0711 35.4339C84.3438 35.4339 85.4884 35.6259 86.505 36.01C87.5292 36.3865 88.3952 36.9061 89.103 37.5688C89.8184 38.2314 90.3644 39.0108 90.7409 39.907C91.125 40.8031 91.317 41.7632 91.317 42.7874C91.317 42.9154 91.3132 43.0547 91.3057 43.2053C91.3057 43.3484 91.2982 43.4802 91.2831 43.6007H78.6771C78.8202 43.9998 79.0499 44.365 79.3662 44.6963C79.69 45.0277 80.0928 45.3138 80.5748 45.5548C81.0567 45.7958 81.614 45.9841 82.2466 46.1196C82.8791 46.2476 83.5795 46.3116 84.3476 46.3116C85.1157 46.3116 85.88 46.2326 86.6406 46.0744C87.4012 45.9087 88.1278 45.7017 88.8207 45.4532L89.9502 48.006C89.5135 48.2093 89.0692 48.39 88.6173 48.5482C88.173 48.6988 87.7061 48.8268 87.2167 48.9322C86.7347 49.0301 86.2264 49.1054 85.6917 49.1581C85.1646 49.2109 84.6074 49.2372 84.02 49.2372C82.5214 49.2372 81.2074 49.0565 80.0778 48.695C78.9482 48.3336 78.0031 47.8403 77.2426 47.2153C76.482 46.5903 75.9097 45.856 75.5256 45.0126C75.1416 44.1692 74.9495 43.2618 74.9495 42.2904ZM87.7702 40.9914C87.6497 40.6224 87.4614 40.2797 87.2054 39.9634C86.9569 39.6396 86.6443 39.361 86.2678 39.1276C85.8913 38.8866 85.4545 38.6983 84.9575 38.5628C84.4605 38.4272 83.9146 38.3595 83.3196 38.3595C82.6871 38.3595 82.111 38.431 81.5914 38.5741C81.0718 38.7172 80.6162 38.9092 80.2246 39.1502C79.833 39.3911 79.5055 39.6698 79.2419 39.986C78.9859 40.3023 78.7976 40.6374 78.6771 40.9914H87.7702ZM96.931 38.1787H93.7117V35.6711H96.931V31.5256H100.274V35.6711H103.494V38.1787H100.274V49H96.931V38.1787ZM112.903 31.3448H116.698L125.238 49H121.476L120.065 46.0292H109.752L108.385 49H104.612L112.903 31.3448ZM118.653 43.0811L114.835 35.0611L111.118 43.0811H118.653ZM129.327 33.8525C128.996 33.8525 128.694 33.8073 128.423 33.7169C128.16 33.619 127.934 33.491 127.746 33.3329C127.557 33.1672 127.41 32.9789 127.305 32.7681C127.207 32.5497 127.158 32.32 127.158 32.0791C127.158 31.8306 127.207 31.6009 127.305 31.39C127.41 31.1716 127.557 30.9834 127.746 30.8252C127.934 30.6671 128.16 30.5428 128.423 30.4525C128.694 30.3546 128.996 30.3056 129.327 30.3056C129.666 30.3056 129.967 30.3546 130.231 30.4525C130.502 30.5428 130.731 30.6671 130.92 30.8252C131.108 30.9834 131.251 31.1716 131.349 31.39C131.454 31.6009 131.507 31.8306 131.507 32.0791C131.507 32.32 131.454 32.5497 131.349 32.7681C131.251 32.9789 131.108 33.1672 130.92 33.3329C130.731 33.491 130.502 33.619 130.231 33.7169C129.967 33.8073 129.666 33.8525 129.327 33.8525ZM127.655 35.6711H130.999V49H127.655V35.6711Z" fill="white"/>
</mask>
<g mask="url(#mask0_753_145)">
<path d="M7.84766 42.2704L10.6237 31.3976L25.6605 28.0046H34.2971L45.1699 31.3976L51.8786 29.4698H114.031L119.043 31.3976L127.217 35.5616L132.229 34.482L130.996 50.6756L14.4022 49.596L7.84766 42.2704Z" fill="white"/>
</g>
</g>
<g filter="url(#filter1_d_753_145)">
<path d="M48.2695 15.8174C48.1706 15.8174 48.0902 15.7555 48.0283 15.6318C48.0283 15.2422 47.9819 14.9422 47.8892 14.7319C47.8026 14.5216 47.7253 14.4134 47.6572 14.4072C47.1624 14.4072 46.6274 15.3597 46.0522 17.2646C45.6069 18.7367 45.2884 20.1808 45.0967 21.5972C45.0472 21.9683 45.0225 22.2651 45.0225 22.4878C45.0225 22.7104 45.0688 22.828 45.1616 22.8403C45.4771 22.8218 45.876 22.3146 46.3584 21.3188C46.8408 20.3231 47.181 19.3551 47.3789 18.415C47.4284 18.1676 47.4562 17.9574 47.4624 17.7842C47.3758 17.7842 47.3078 17.7718 47.2583 17.7471C47.0913 17.6605 47.0016 17.5244 46.9893 17.3389C47.0016 17.2523 47.0356 17.2028 47.0913 17.1904C48.7427 16.9678 49.9456 16.8564 50.7002 16.8564C50.793 16.9059 50.8517 17.0698 50.8765 17.3481C50.8703 17.4533 50.7868 17.509 50.626 17.5151C50.2301 17.5337 49.8374 17.577 49.4478 17.645C49.0581 17.7131 48.8416 17.7502 48.7983 17.7563C48.6499 18.3687 48.5726 18.7119 48.5664 18.7861C48.5602 18.8604 48.5355 19.0026 48.4922 19.2129C47.5212 24.1855 46.411 27.547 45.1616 29.2974C44.7349 29.8911 44.271 30.3395 43.77 30.6426C43.269 30.9456 42.8763 31.0972 42.5918 31.0972C42.2207 31.0972 42.0352 31.026 42.0352 30.8838C42.0352 30.8405 42.0785 30.8096 42.165 30.791C42.2454 30.7725 42.2856 30.7601 42.2856 30.7539C42.7619 30.6797 43.2319 30.3952 43.6958 29.9004C43.8133 29.7705 43.9154 29.6437 44.002 29.52C45.041 28.0728 46.0368 25.7163 46.9893 22.4507C47.113 22.0363 47.2026 21.7116 47.2583 21.4766C46.4728 23.4186 45.6842 24.3896 44.8926 24.3896C44.2741 24.3896 43.9648 23.9845 43.9648 23.1743C43.9648 22.3641 44.2432 20.9539 44.7998 18.9438C45.3564 16.9276 45.8791 15.3875 46.3677 14.3237C46.5594 13.9093 46.7264 13.6156 46.8687 13.4424C47.0171 13.263 47.2243 13.1702 47.4902 13.1641C48.0654 13.1641 48.3994 13.5692 48.4922 14.3794C48.5169 14.5897 48.5231 14.8804 48.5107 15.2515C48.4984 15.6226 48.418 15.8112 48.2695 15.8174ZM51.2012 19.4541C51.3249 19.4355 51.5908 19.1696 51.999 18.6562C52.4072 18.1429 52.6113 17.7409 52.6113 17.4502C52.6113 17.4069 52.5959 17.3574 52.5649 17.3018C52.4412 17.4255 52.1815 17.778 51.7856 18.3594C51.396 18.9408 51.2012 19.3057 51.2012 19.4541ZM54.8936 20.8364C55.2028 20.5024 55.376 20.4437 55.4131 20.6602C55.4131 20.7406 55.3636 20.8735 55.2646 21.0591C54.9616 21.6219 54.4977 22.2188 53.873 22.8496C52.8835 23.8516 52.0083 24.3525 51.2476 24.3525C50.8888 24.3525 50.5827 24.2505 50.3291 24.0464C49.8529 23.6567 49.6147 22.9795 49.6147 22.0146C49.6147 21.4642 49.7817 20.6911 50.1157 19.6953C50.4559 18.6934 50.9754 17.7873 51.6743 16.9771C51.9836 16.5812 52.3052 16.3833 52.6392 16.3833C52.8 16.3833 52.967 16.4173 53.1401 16.4854C53.5483 16.6523 53.7524 16.9214 53.7524 17.2925C53.7524 17.3481 53.7339 17.4378 53.6968 17.5615C53.4432 18.0625 53.035 18.6408 52.4722 19.2964C51.9093 19.952 51.3372 20.4746 50.7559 20.8643C50.5579 21.5817 50.459 22.1414 50.459 22.5435C50.459 22.9455 50.4683 23.2021 50.4868 23.3135C50.5425 23.5732 50.7497 23.7031 51.1084 23.7031C51.4671 23.7031 51.8815 23.5392 52.3516 23.2114C52.8216 22.8774 53.3226 22.4383 53.8545 21.894C54.3864 21.3498 54.6864 21.0436 54.7544 20.9756C54.8286 20.9076 54.875 20.8612 54.8936 20.8364ZM61.4248 20.5303C61.4248 20.8395 61.0723 21.4085 60.3672 22.2373C59.6621 23.0661 59.1333 23.6134 58.7808 23.8794C58.4344 24.1392 58.085 24.269 57.7324 24.269C57.0768 24.2629 56.749 23.7433 56.749 22.7104C56.749 22.2218 56.848 21.458 57.0459 20.4189C57.2438 19.3737 57.349 18.8047 57.3613 18.7119C56.7057 18.9284 56.078 19.751 55.478 21.1797C55.3543 21.4827 55.1564 21.9992 54.8843 22.729C54.6183 23.4526 54.4297 23.8825 54.3184 24.0186C54.1823 24.1794 54.0029 24.2598 53.7803 24.2598C53.5576 24.2598 53.4432 24.1794 53.437 24.0186C53.437 23.7217 54.4297 21.2601 56.415 16.6338C56.7243 15.904 56.9036 15.4958 56.9531 15.4092C57.0583 15.2051 57.2778 15.2144 57.6118 15.437C57.7108 15.505 57.7603 15.5731 57.7603 15.6411C57.7664 15.7091 57.7201 15.8174 57.6211 15.9658C57.3923 16.3245 57.1882 16.742 57.0088 17.2183L56.6562 18.1367L56.9531 17.7749C57.2191 17.4471 57.4325 17.1997 57.5933 17.0327C57.7541 16.8595 57.887 16.7637 57.9922 16.7451C58.1035 16.7204 58.2179 16.708 58.3354 16.708C58.589 16.7266 58.722 16.8626 58.7344 17.1162C58.7344 17.2399 58.6911 17.4069 58.6045 17.6172C58.2148 18.514 57.9149 19.8716 57.7046 21.6899C57.6489 22.2095 57.6211 22.6672 57.6211 23.063C57.6273 23.4526 57.7231 23.6506 57.9087 23.6567C58.1685 23.6567 58.6416 23.2547 59.3281 22.4507C60.0146 21.6405 60.5094 20.9694 60.8125 20.4375C60.8929 20.3076 61.0073 20.2396 61.1558 20.2334C61.3104 20.2705 61.4001 20.3695 61.4248 20.5303ZM62.167 19.4541C62.2907 19.4355 62.5566 19.1696 62.9648 18.6562C63.373 18.1429 63.5771 17.7409 63.5771 17.4502C63.5771 17.4069 63.5617 17.3574 63.5308 17.3018C63.4071 17.4255 63.1473 17.778 62.7515 18.3594C62.3618 18.9408 62.167 19.3057 62.167 19.4541ZM65.8594 20.8364C66.1686 20.5024 66.3418 20.4437 66.3789 20.6602C66.3789 20.7406 66.3294 20.8735 66.2305 21.0591C65.9274 21.6219 65.4635 22.2188 64.8389 22.8496C63.8493 23.8516 62.9741 24.3525 62.2134 24.3525C61.8547 24.3525 61.5485 24.2505 61.2949 24.0464C60.8187 23.6567 60.5806 22.9795 60.5806 22.0146C60.5806 21.4642 60.7476 20.6911 61.0815 19.6953C61.4217 18.6934 61.9412 17.7873 62.6401 16.9771C62.9494 16.5812 63.271 16.3833 63.605 16.3833C63.7658 16.3833 63.9328 16.4173 64.106 16.4854C64.5142 16.6523 64.7183 16.9214 64.7183 17.2925C64.7183 17.3481 64.6997 17.4378 64.6626 17.5615C64.409 18.0625 64.0008 18.6408 63.438 19.2964C62.8752 19.952 62.3031 20.4746 61.7217 20.8643C61.5238 21.5817 61.4248 22.1414 61.4248 22.5435C61.4248 22.9455 61.4341 23.2021 61.4526 23.3135C61.5083 23.5732 61.7155 23.7031 62.0742 23.7031C62.4329 23.7031 62.8473 23.5392 63.3174 23.2114C63.7874 22.8774 64.2884 22.4383 64.8203 21.894C65.3522 21.3498 65.6522 21.0436 65.7202 20.9756C65.7944 20.9076 65.8408 20.8612 65.8594 20.8364ZM69.2178 18.1646L69.1992 18.2852L69.1807 18.3965C69.1807 18.5449 68.9642 19.1387 68.5312 20.1777C68.0921 21.2168 67.8757 21.9528 67.8818 22.3857C67.8942 23.1217 68.0736 23.4928 68.4199 23.499C68.7663 23.499 69.2734 23.1125 69.9414 22.3394C70.7454 21.4116 71.2371 20.7127 71.4165 20.2427C71.5959 19.7788 71.735 19.5469 71.834 19.5469C71.9144 19.5531 71.9577 19.6396 71.9639 19.8066C71.9639 19.9674 71.9453 20.0911 71.9082 20.1777L71.8154 20.4282C71.5495 21.1086 71.132 21.8167 70.563 22.5527C69.7404 23.6351 69.0075 24.1763 68.3643 24.1763C68.1602 24.1763 67.9746 24.1237 67.8076 24.0186C67.387 23.7526 67.1768 23.2516 67.1768 22.5156C67.1768 22.2744 67.2293 21.9033 67.3345 21.4023C67.4458 20.9014 67.4984 20.6323 67.4922 20.5952C67.4922 20.5519 67.4365 20.5055 67.3252 20.4561C67.1025 20.3571 66.9541 20.3447 66.8799 20.4189C66.818 20.5055 66.5428 21.1735 66.0542 22.4229C65.5718 23.6722 65.2409 24.2969 65.0615 24.2969C65.0059 24.2969 64.9007 24.2598 64.7461 24.1855C64.5853 24.1113 64.5049 24.0093 64.5049 23.8794C64.5049 23.8547 64.5853 23.666 64.7461 23.3135L65.2563 22.1353C65.6151 21.3065 66.0356 20.2025 66.5181 18.8232L67.752 15.335C67.7829 15.2484 67.8818 15.202 68.0488 15.1958L68.29 15.1865C68.5869 15.1865 68.7354 15.2948 68.7354 15.5112C68.7354 15.6164 68.5745 16.0802 68.2529 16.9028C67.9313 17.7254 67.7241 18.3594 67.6313 18.8047L67.6035 19.083C67.6035 19.1634 67.619 19.2098 67.6499 19.2222C67.6685 19.216 67.7458 19.0799 67.8818 18.814L68.123 18.3408C68.1602 18.2852 68.1973 18.2109 68.2344 18.1182C68.3704 17.8646 68.5312 17.7378 68.7168 17.7378C69.0384 17.744 69.2054 17.877 69.2178 18.1367V18.1646ZM75.5078 17.9419C74.5182 18.1089 73.6554 18.7583 72.9194 19.8901C72.202 20.991 71.8247 22.0796 71.7876 23.1558C73.2039 21.2879 74.444 19.55 75.5078 17.9419ZM75.0811 17.1533L75.6284 17.2275C75.715 17.2275 75.8047 17.1781 75.8975 17.0791C75.9964 16.9801 76.1201 16.9307 76.2686 16.9307C76.4232 16.9307 76.5438 16.9709 76.6304 17.0513C76.7231 17.1317 76.7695 17.2028 76.7695 17.2646C76.7695 17.3203 76.7386 17.4162 76.6768 17.5522C76.6149 17.6883 76.5778 17.778 76.5654 17.8213C75.7428 20.4004 75.3315 22.0456 75.3315 22.7568C75.3377 23.0042 75.3934 23.131 75.4985 23.1372C75.8758 23.1372 76.4665 22.6424 77.2705 21.6528C77.8086 20.991 78.1549 20.5055 78.3096 20.1963C78.4704 19.887 78.5972 19.7231 78.6899 19.7046C78.7085 19.7046 78.724 19.7015 78.7363 19.6953C78.8477 19.7077 78.9064 19.7726 78.9126 19.8901C78.9126 20.1128 78.6559 20.6138 78.1426 21.3931C77.0479 23.063 76.1016 23.8979 75.3037 23.8979C74.7285 23.8979 74.4409 23.4959 74.4409 22.6919C74.4409 22.3084 74.5182 21.8322 74.6729 21.2632C74.8275 20.688 74.9202 20.3293 74.9512 20.187C74.8089 20.3726 74.3327 21.0467 73.5225 22.2095C72.7122 23.3722 72.1309 24.0588 71.7783 24.269C71.667 24.3309 71.5711 24.3649 71.4907 24.3711C71.1382 24.3711 70.8815 24.2319 70.7207 23.9536C70.6465 23.8175 70.6094 23.6227 70.6094 23.3691C70.6032 23.1094 70.7918 22.5156 71.1753 21.5879C71.7938 20.0911 72.4958 18.9377 73.2812 18.1274C73.8997 17.4966 74.4997 17.1719 75.0811 17.1533ZM80.7681 16.8286L84.0986 16.7544C84.1667 16.7544 84.2409 16.8162 84.3213 16.9399C84.4017 17.0575 84.445 17.2183 84.4512 17.4224C84.445 17.5584 84.2687 17.6296 83.9224 17.6357C82.8957 17.6605 81.6525 17.7842 80.1929 18.0068C80.0877 18.3099 79.9176 18.7459 79.6826 19.3149C78.6497 21.8136 78.1333 23.5671 78.1333 24.5752C78.1333 25.0762 78.2292 25.5586 78.4209 26.0225C78.7549 26.8018 79.2528 27.1914 79.9146 27.1914C80.4279 27.1914 80.8577 27.0584 81.2041 26.7925C81.5566 26.5327 81.971 26.1029 82.4473 25.5029C82.5957 25.3112 82.7503 25.2432 82.9111 25.2988C83.0658 25.3669 83.1431 25.4998 83.1431 25.6978C83.1431 26.2668 82.8153 26.7399 82.1597 27.1172C81.5041 27.5007 80.799 27.6924 80.0444 27.6924C79.2961 27.6924 78.6466 27.4172 78.0962 26.8667C77.5519 26.3162 77.2798 25.5833 77.2798 24.668C77.2798 24.0557 77.3571 23.4001 77.5117 22.7012C77.6663 22.0023 77.9478 21.1333 78.356 20.0942C78.7642 19.049 79.0301 18.3532 79.1538 18.0068C77.8735 18.0068 77.1592 17.9914 77.0107 17.9604C76.5531 17.8615 76.3211 17.6667 76.3149 17.376C76.3211 17.2832 76.3923 17.2244 76.5283 17.1997L79.5435 16.9492L81.5288 13.6094C81.7576 13.2259 81.9648 13.0342 82.1504 13.0342C82.2246 13.0342 82.3112 13.0465 82.4102 13.0713C82.7751 13.1517 82.9575 13.2847 82.9575 13.4702C82.9575 13.6496 82.772 13.9279 82.4009 14.3052C82.0298 14.6825 81.8009 14.9237 81.7144 15.0288C81.4237 15.3875 81.1082 15.9875 80.7681 16.8286ZM84.4512 19.4541C84.5749 19.4355 84.8408 19.1696 85.249 18.6562C85.6572 18.1429 85.8613 17.7409 85.8613 17.4502C85.8613 17.4069 85.8459 17.3574 85.8149 17.3018C85.6912 17.4255 85.4315 17.778 85.0356 18.3594C84.646 18.9408 84.4512 19.3057 84.4512 19.4541ZM88.1436 20.8364C88.4528 20.5024 88.626 20.4437 88.6631 20.6602C88.6631 20.7406 88.6136 20.8735 88.5146 21.0591C88.2116 21.6219 87.7477 22.2188 87.123 22.8496C86.1335 23.8516 85.2583 24.3525 84.4976 24.3525C84.1388 24.3525 83.8327 24.2505 83.5791 24.0464C83.1029 23.6567 82.8647 22.9795 82.8647 22.0146C82.8647 21.4642 83.0317 20.6911 83.3657 19.6953C83.7059 18.6934 84.2254 17.7873 84.9243 16.9771C85.2336 16.5812 85.5552 16.3833 85.8892 16.3833C86.05 16.3833 86.217 16.4173 86.3901 16.4854C86.7983 16.6523 87.0024 16.9214 87.0024 17.2925C87.0024 17.3481 86.9839 17.4378 86.9468 17.5615C86.6932 18.0625 86.285 18.6408 85.7222 19.2964C85.1593 19.952 84.5872 20.4746 84.0059 20.8643C83.8079 21.5817 83.709 22.1414 83.709 22.5435C83.709 22.9455 83.7183 23.2021 83.7368 23.3135C83.7925 23.5732 83.9997 23.7031 84.3584 23.7031C84.7171 23.7031 85.1315 23.5392 85.6016 23.2114C86.0716 22.8774 86.5726 22.4383 87.1045 21.894C87.6364 21.3498 87.9364 21.0436 88.0044 20.9756C88.0786 20.9076 88.125 20.8612 88.1436 20.8364ZM96.3262 11.8467C95.1758 13.7393 94.0037 16.4637 92.8101 20.02C92.8101 20.02 92.6833 20.3787 92.4297 21.0962C91.7679 22.9207 91.4339 24.1206 91.4277 24.6958C91.4401 24.7948 91.5391 24.9308 91.7246 25.104C91.904 25.2463 91.9937 25.3823 91.9937 25.5122C91.9813 25.8647 91.8483 26.0596 91.5947 26.0967C91.4401 26.0967 91.3009 26.041 91.1772 25.9297C90.9299 25.7008 90.8062 25.3298 90.8062 24.8164C90.8062 23.8639 91.0072 22.8187 91.4092 21.6807C91.8174 20.5365 92.0586 19.8252 92.1328 19.5469L91.1772 20.7993C90.3237 21.9188 89.5475 22.8187 88.8486 23.499C88.793 23.5299 88.6322 23.6567 88.3662 23.8794C88.1064 24.0959 87.791 24.2041 87.4199 24.2041C87.3148 24.2041 87.2189 24.1855 87.1323 24.1484C86.8293 24.0247 86.6777 23.7464 86.6777 23.3135C86.6777 23.0908 86.8818 22.6084 87.29 21.8662C87.6982 21.124 88.3971 20.1592 89.3867 18.9717C90.3825 17.7842 91.0597 17.1162 91.4185 16.9678C91.7834 16.8193 92.1699 16.7451 92.5781 16.7451C92.7389 16.6338 92.909 16.473 93.0884 16.2627C93.2677 16.0524 93.4811 15.6875 93.7285 15.168L94.2109 14.1475C94.3161 13.9372 94.5016 13.5413 94.7676 12.96C95.0335 12.3724 95.2438 11.924 95.3984 11.6147C96.0355 10.3407 96.5643 9.70361 96.9849 9.70361C97.3993 9.7098 97.6126 9.9139 97.625 10.3159C97.625 10.619 97.4982 10.9499 97.2446 11.3086C96.991 11.6673 96.6849 11.8467 96.3262 11.8467ZM91.7617 18.2573C91.8236 18.0718 91.8545 17.9481 91.8545 17.8862C91.8545 17.8182 91.8421 17.778 91.8174 17.7656C91.7741 17.7656 91.5824 17.9295 91.2422 18.2573C89.8939 19.519 88.793 20.8828 87.9395 22.3486C87.7415 22.695 87.6426 22.9146 87.6426 23.0073C87.6426 23.1001 87.6642 23.1527 87.7075 23.165C87.7632 23.165 87.8498 23.1248 87.9673 23.0444C88.4064 22.7476 89.0806 22.0703 89.9897 21.0127C90.8989 19.9551 91.4896 19.0366 91.7617 18.2573ZM98.0518 17.0791C98.2126 17.1286 98.361 17.1533 98.4971 17.1533C98.6331 17.1533 98.8001 17.1193 98.998 17.0513C99.5609 16.8472 99.932 16.4575 100.111 15.8823C100.136 15.7896 100.182 15.7432 100.25 15.7432C100.325 15.7432 100.405 15.7524 100.492 15.771C100.844 15.8452 101.021 15.9813 101.021 16.1792V16.8564C100.773 17.0482 100.532 17.3729 100.297 17.8306C100.068 18.2821 99.8485 19.1263 99.6382 20.3633L99.5825 20.688L99.7588 20.4189C100.656 19.0521 101.209 18.0254 101.419 17.3389C101.846 17.4873 102.233 17.5615 102.579 17.5615C104.039 17.5615 105.072 17.3141 105.678 16.8193C105.764 16.7389 105.82 16.7018 105.845 16.708C105.845 16.7204 105.771 16.9245 105.622 17.3203L105.372 17.9604C105.304 18.1151 105.217 18.1924 105.112 18.1924C104.821 18.1553 104.645 18.1367 104.583 18.1367C104.144 18.1367 103.733 18.245 103.349 18.4614C103.139 19.7479 102.857 20.9818 102.505 22.1631C102.424 22.4105 102.261 22.7537 102.013 23.1929C101.537 24.0278 101.15 24.4453 100.854 24.4453C100.383 24.4453 100.145 23.8268 100.139 22.5898C100.139 22.4538 100.142 22.259 100.148 22.0054C100.155 21.7518 100.158 21.5693 100.158 21.458C100.102 21.4889 100.046 21.5384 99.9907 21.6064C99.9412 21.6745 99.7743 21.9373 99.4897 22.395C99.2052 22.8527 98.9671 23.0815 98.7754 23.0815C98.7445 23.0815 98.695 23.063 98.627 23.0259C98.3115 22.8589 98.1538 22.6084 98.1538 22.2744C98.1538 21.7425 98.3734 20.8766 98.8125 19.6768C99.2516 18.4769 99.4959 17.7749 99.5454 17.5708C99.3599 17.4904 99.1125 17.5059 98.8032 17.6172C98.5002 17.7285 98.3332 17.7842 98.3022 17.7842C98.1167 17.778 98.0208 17.6636 98.0146 17.4409C98.0085 17.2121 98.0208 17.0915 98.0518 17.0791ZM100.872 22.6084C100.872 22.7878 100.922 22.8465 101.021 22.7847C101.231 22.6177 101.565 21.9744 102.022 20.855C102.486 19.7355 102.715 18.9098 102.709 18.3779C102.709 18.3161 102.697 18.2419 102.672 18.1553C102.591 17.8955 102.477 17.7656 102.329 17.7656C102.292 17.778 102.251 17.8182 102.208 17.8862C101.899 18.4181 101.599 19.2067 101.308 20.252C101.017 21.2972 100.872 22.0827 100.872 22.6084ZM106.875 15.4463C106.844 15.4339 106.766 15.3844 106.643 15.2979C106.494 15.1927 106.42 15.1154 106.42 15.0659C106.42 14.8989 106.652 14.5062 107.116 13.8877C107.58 13.2692 107.842 12.8981 107.904 12.7744C108.059 12.6198 108.272 12.6971 108.544 13.0063C108.761 13.2661 108.829 13.4764 108.749 13.6372C108.705 13.798 108.442 14.1382 107.96 14.6577C107.478 15.1772 107.116 15.4401 106.875 15.4463ZM109.092 21.2725C108.863 21.9157 108.408 22.5713 107.728 23.2393C106.924 24.0309 106.25 24.4268 105.706 24.4268C104.97 24.4268 104.509 24.0093 104.323 23.1743C104.268 22.9207 104.24 22.6455 104.24 22.3486C104.234 21.39 104.416 20.2798 104.787 19.0181C105.251 17.4224 105.69 16.6245 106.104 16.6245C106.309 16.6245 106.457 16.674 106.55 16.7729C106.649 16.8657 106.698 16.9338 106.698 16.9771C106.698 17.175 106.497 17.6636 106.095 18.4429C105.693 19.216 105.443 19.7788 105.344 20.1313C105.251 20.4777 105.18 20.9323 105.13 21.4951C105.087 22.0518 105.065 22.4105 105.065 22.5713C105.065 23.1156 105.13 23.4557 105.26 23.5918C105.396 23.7279 105.56 23.799 105.752 23.8052C106.296 23.8052 106.946 23.332 107.7 22.3857C108.065 21.9219 108.35 21.4951 108.554 21.1055C108.646 20.957 108.742 20.8828 108.841 20.8828C109.008 20.9076 109.101 20.991 109.12 21.1333C109.12 21.1519 109.11 21.1982 109.092 21.2725ZM111.587 16.8286L114.918 16.7544C114.986 16.7544 115.06 16.8162 115.141 16.9399C115.221 17.0575 115.264 17.2183 115.271 17.4224C115.264 17.5584 115.088 17.6296 114.742 17.6357C113.715 17.6605 112.472 17.7842 111.012 18.0068C110.907 18.3099 110.737 18.7459 110.502 19.3149C109.469 21.8136 108.953 23.5671 108.953 24.5752C108.953 25.0762 109.049 25.5586 109.24 26.0225C109.574 26.8018 110.072 27.1914 110.734 27.1914C111.247 27.1914 111.677 27.0584 112.023 26.7925C112.376 26.5327 112.79 26.1029 113.267 25.5029C113.415 25.3112 113.57 25.2432 113.73 25.2988C113.885 25.3669 113.962 25.4998 113.962 25.6978C113.962 26.2668 113.635 26.7399 112.979 27.1172C112.323 27.5007 111.618 27.6924 110.864 27.6924C110.115 27.6924 109.466 27.4172 108.916 26.8667C108.371 26.3162 108.099 25.5833 108.099 24.668C108.099 24.0557 108.176 23.4001 108.331 22.7012C108.486 22.0023 108.767 21.1333 109.175 20.0942C109.583 19.049 109.849 18.3532 109.973 18.0068C108.693 18.0068 107.979 17.9914 107.83 17.9604C107.372 17.8615 107.14 17.6667 107.134 17.376C107.14 17.2832 107.212 17.2244 107.348 17.1997L110.363 16.9492L112.348 13.6094C112.577 13.2259 112.784 13.0342 112.97 13.0342C113.044 13.0342 113.131 13.0465 113.229 13.0713C113.594 13.1517 113.777 13.2847 113.777 13.4702C113.777 13.6496 113.591 13.9279 113.22 14.3052C112.849 14.6825 112.62 14.9237 112.534 15.0288C112.243 15.3875 111.928 15.9875 111.587 16.8286ZM115.623 18.4893C115.629 18.4831 115.747 18.3408 115.976 18.0625C116.204 17.7904 116.365 17.6048 116.458 17.5059L116.634 17.3203C116.758 17.2028 116.944 17.1471 117.191 17.1533C117.438 17.1533 117.568 17.277 117.581 17.5244C117.581 17.5924 117.537 17.744 117.451 17.979C117.364 18.214 117.247 18.6532 117.098 19.2964C116.727 20.855 116.542 22.1167 116.542 23.0815C116.542 23.4712 116.597 23.6722 116.708 23.6846C116.9 23.6846 117.197 23.4403 117.599 22.9517C117.964 22.5125 118.539 21.5044 119.325 19.9272C119.442 19.7231 119.578 19.6211 119.733 19.6211C119.813 19.6396 119.86 19.7077 119.872 19.8252C119.872 20.1344 119.789 20.4993 119.622 20.9199C119.306 21.7301 118.83 22.4909 118.193 23.2021C117.562 23.9134 117.042 24.269 116.634 24.269C116.034 24.2629 115.728 23.7712 115.716 22.7939C115.716 21.9899 115.849 20.8488 116.115 19.3706C115.719 19.5005 115.363 19.8128 115.048 20.3076C114.739 20.8024 114.417 21.5199 114.083 22.46C113.737 23.431 113.499 23.9784 113.369 24.1021C113.22 24.2134 113.056 24.266 112.877 24.2598C112.691 24.2598 112.596 24.1948 112.589 24.0649C112.583 23.9351 112.902 23.0104 113.545 21.291C114.188 19.5716 114.915 17.7965 115.725 15.9658C116.542 14.1351 117.008 12.9352 117.126 12.3662C117.169 12.193 117.33 12.1034 117.608 12.0972C117.701 12.0972 117.794 12.1095 117.887 12.1343C118.146 12.2023 118.276 12.3229 118.276 12.4961C118.276 12.5579 118.258 12.626 118.221 12.7002L118.091 12.9229C117.621 13.7578 116.798 15.6133 115.623 18.4893ZM122.581 24.98H136.581V10.98H122.581V24.98Z" fill="white"/>
</g>
<defs>
<filter id="filter0_d_753_145" x="-1.2" y="16.8" width="143.63" height="41.6373" filterUnits="userSpaceOnUse" color-interpolation-filters="sRGB">
<feFlood flood-opacity="0" result="BackgroundImageFix"/>
<feColorMatrix in="SourceAlpha" type="matrix" values="0 0 0 0 0 0 0 0 0 0 0 0 0 0 0 0 0 0 127 0" result="hardAlpha"/>
<feOffset/>
<feGaussianBlur stdDeviation="4.6"/>
<feComposite in2="hardAlpha" operator="out"/>
<feColorMatrix type="matrix" values="0 0 0 0 0.227523 0 0 0 0 0.227523 0 0 0 0 0.227523 0 0 0 0.32 0"/>
<feBlend mode="normal" in2="BackgroundImageFix" result="effect1_dropShadow_753_145"/>
<feBlend mode="normal" in="SourceGraphic" in2="effect1_dropShadow_753_145" result="shape"/>
</filter>
<filter id="filter1_d_753_145" x="32.8352" y="0.503613" width="112.947" height="39.7936" filterUnits="userSpaceOnUse" color-interpolation-filters="sRGB">
<feFlood flood-opacity="0" result="BackgroundImageFix"/>
<feColorMatrix in="SourceAlpha" type="matrix" values="0 0 0 0 0 0 0 0 0 0 0 0 0 0 0 0 0 0 127 0" result="hardAlpha"/>
<feOffset/>
<feGaussianBlur stdDeviation="4.6"/>
<feComposite in2="hardAlpha" operator="out"/>
<feColorMatrix type="matrix" values="0 0 0 0 0.227523 0 0 0 0 0.227523 0 0 0 0 0.227523 0 0 0 0.32 0"/>
<feBlend mode="normal" in2="BackgroundImageFix" result="effect1_dropShadow_753_145"/>
<feBlend mode="normal" in="SourceGraphic" in2="effect1_dropShadow_753_145" result="shape"/>
</filter>
</defs>
</svg>
